<?xml version="1.0" standalone="no"?>
<!DOCTYPE svg PUBLIC "-//W3C//DTD SVG 20010904//EN"
 "http://www.w3.org/TR/2001/REC-SVG-20010904/DTD/svg10.dtd">
<svg version="1.0" xmlns="http://www.w3.org/2000/svg"
 width="2000.000000pt" height="2000.000000pt" viewBox="0 0 2000.000000 2000.000000"
 preserveAspectRatio="xMidYMid meet">

<g transform="translate(0.000000,2000.000000) scale(0.100000,-0.100000)"
fill="#000000" stroke="none">
<path d="M17018 17143 c7 -3 16 -2 19 1 4 3 -2 6 -13 5 -11 0 -14 -3 -6 -6z"/>
<path d="M16913 17133 c9 -2 23 -2 30 0 6 3 -1 5 -18 5 -16 0 -22 -2 -12 -5z"/>
<path d="M17203 17133 c9 -2 23 -2 30 0 6 3 -1 5 -18 5 -16 0 -22 -2 -12 -5z"/>
<path d="M16770 17111 c-264 -72 -497 -238 -646 -461 -135 -203 -194 -399
-194 -641 0 -230 58 -429 180 -617 l41 -63 -60 -217 c-32 -119 -58 -218 -57
-219 1 -2 93 34 204 78 l202 81 98 -50 c119 -62 226 -98 347 -117 357 -58 730
61 986 315 562 557 402 1500 -312 1839 -92 44 -246 92 -288 90 l-26 -2 25 -4
c55 -9 199 -57 268 -89 218 -100 424 -300 530 -515 83 -170 117 -315 117 -504
0 -440 -249 -828 -650 -1016 -140 -66 -247 -90 -425 -96 -232 -8 -365 22 -572
129 l-97 51 -181 -73 c-99 -40 -182 -71 -184 -69 -2 2 20 92 50 198 l53 195
-43 65 c-392 593 -136 1398 527 1662 28 12 93 32 142 45 50 12 77 23 60 23
-16 -1 -59 -9 -95 -18z"/>
<path d="M14550 16659 c-30 -5 -87 -25 -127 -44 -59 -29 -88 -53 -155 -126
-80 -87 -140 -128 -208 -144 -21 -5 -28 0 -45 32 -24 45 -92 98 -143 113 -48
13 -156 13 -207 -1 -186 -48 -331 -152 -394 -282 -41 -83 -48 -151 -26 -257
41 -200 18 -251 -177 -394 -103 -75 -133 -120 -133 -202 0 -73 14 -93 90 -131
54 -27 85 -51 85 -65 0 -4 -1928 -8 -4285 -8 l-4285 0 -2 -2287 -3 -2288 -132
-3 -133 -3 0 171 0 170 -645 0 -645 0 -2 -267 -3 -268 -480 0 -480 0 -3 153
-3 152 -279 0 -280 0 0 -740 0 -740 280 0 280 0 0 145 0 145 480 0 480 0 0
-870 0 -870 6104 0 c4847 0 6105 -3 6108 -12 4 -10 38 -9 159 5 340 38 505 58
534 62 17 2 63 7 103 11 l72 7 0 -37 0 -36 70 0 70 0 0 188 c0 103 9 473 20
822 11 349 20 656 20 683 0 26 4 47 8 47 4 0 92 -156 195 -348 103 -191 208
-385 233 -432 26 -47 91 -168 146 -270 55 -102 103 -189 107 -193 7 -7 879
489 909 518 11 10 -7 50 -96 221 l-110 209 54 3 54 3 0 739 0 740 -280 0 -280
0 0 -149 c0 -110 -3 -150 -12 -153 -22 -8 -133 -9 -144 -1 -6 5 -61 107 -124
228 -62 121 -125 243 -140 270 -15 28 -87 167 -161 310 -126 245 -138 264
-206 331 l-73 72 84 7 84 7 62 222 c35 121 67 229 72 239 5 9 21 18 36 18 27
2 27 2 2 6 -38 7 -42 16 -25 62 16 47 20 76 6 51 -4 -8 -44 -142 -87 -297
l-79 -282 -30 -5 c-16 -2 -291 -30 -610 -62 -319 -32 -582 -60 -585 -64 -5 -6
-147 -50 -162 -50 -5 0 -8 18 -8 40 0 22 -4 40 -10 40 -5 0 -3 20 5 47 8 26
12 49 10 52 -3 2 -5 -1 -5 -7 0 -7 -4 -12 -9 -12 -4 0 -1 28 9 63 33 122 33
117 5 117 -13 0 -62 18 -107 39 -46 22 -101 43 -123 48 l-40 8 -3 238 -2 237
96 0 95 0 64 54 c60 51 128 84 203 101 17 3 32 3 32 -2 -1 -13 -38 -149 -39
-140 -1 4 -15 0 -31 -8 -32 -17 -32 -35 1 -35 11 0 19 7 20 18 0 15 1 14 8 -2
6 -15 11 -6 23 40 8 32 64 250 123 484 59 234 111 429 115 434 9 9 1369 80
1378 71 3 -3 3 -7 1 -9 -2 -2 -287 -18 -634 -35 -346 -17 -648 -34 -670 -37
l-40 -4 -113 -463 c-63 -254 -116 -471 -119 -482 -3 -13 -2 -16 4 -10 6 6 60
210 122 455 61 245 115 454 120 465 8 20 29 22 689 54 373 19 684 32 689 30 6
-2 -34 -161 -92 -364 -56 -198 -101 -362 -98 -364 11 -13 30 44 123 374 57
198 105 366 108 374 4 11 -2 13 -26 8 -27 -6 -32 -4 -32 13 0 10 -4 21 -9 25
-6 3 -6 17 1 36 6 16 7 33 4 37 -4 3 -285 -8 -624 -25 -339 -18 -618 -31 -619
-30 -1 2 -7 54 -13 117 -15 156 -34 228 -87 339 -36 75 -60 110 -117 167 -70
70 -73 72 -186 109 -152 50 -270 95 -270 103 0 4 -43 47 -95 95 l-95 89 -39
-31 c-22 -17 -66 -44 -98 -59 -50 -23 -71 -27 -148 -27 -112 0 -149 16 -340
147 l-136 93 -52 -60 c-29 -33 -63 -72 -77 -88 -22 -24 -53 -35 -235 -82 -295
-75 -324 -88 -413 -174 -121 -118 -181 -272 -202 -522 -20 -238 -71 -545 -161
-966 -27 -128 -49 -249 -49 -270 l0 -38 -2692 3 c-1481 1 -3105 -1 -3608 -6
-714 -7 -121 -9 2690 -10 l3606 -2 11 -84 c20 -147 86 -281 191 -388 31 -32
52 -58 48 -58 -5 0 -2 -8 7 -18 16 -18 -70 -18 -2711 -15 -1500 2 -3188 0
-3752 -5 -826 -7 -294 -9 2740 -10 l3766 -2 66 -35 c78 -41 188 -81 253 -91
39 -5 49 -12 73 -48 18 -28 45 -50 85 -70 41 -20 54 -32 45 -37 -8 -4 -42 -71
-77 -148 l-63 -140 -2842 5 c-1562 3 -3347 1 -3966 -4 -921 -7 -405 -9 2838
-10 2179 -1 3962 -3 3962 -5 0 -2 -17 -44 -39 -93 -46 -107 -103 -280 -126
-386 l-17 -78 -1222 0 c-1334 0 -1279 2 -1389 -57 -62 -34 -138 -117 -174
-191 l-28 -57 -3 -344 -3 -344 -112 6 c-62 4 -234 7 -384 7 l-272 0 -3 338 -3
337 -30 53 c-50 91 -141 138 -249 130 -71 -6 -112 -24 -159 -72 -71 -71 -72
-73 -75 -448 l-3 -338 -369 0 -369 0 -3 348 c-3 346 -3 347 -28 397 -31 64
-92 124 -155 156 l-50 24 -1852 3 -1853 2 0 2280 0 2280 4280 0 c4134 0 4280
-1 4280 -18 0 -10 -7 -40 -16 -66 -21 -62 -14 -158 15 -219 47 -98 149 -183
286 -241 62 -26 82 -29 180 -30 105 -1 113 0 177 32 83 41 149 111 196 210 33
69 36 72 69 72 l34 0 -6 65 -5 64 38 20 c48 25 109 91 132 145 33 73 35 127
10 249 -16 76 -21 124 -16 150 8 44 55 100 129 155 43 31 65 39 132 49 44 7
95 12 113 13 17 0 32 4 32 10 0 20 -45 32 -110 28 -68 -4 -68 -3 -59 20 5 13
9 44 9 70 1 142 42 191 210 252 94 33 163 81 176 122 8 25 41 18 100 -22 81
-56 146 -170 179 -310 23 -99 34 -613 16 -741 -29 -206 -107 -334 -246 -407
l-40 -21 45 0 c77 -1 128 32 249 162 173 186 189 243 110 397 -59 116 -59 164
1 315 72 183 62 249 -61 390 -83 96 -109 143 -120 219 -13 92 -42 162 -95 229
-102 130 -270 194 -434 166z m2335 -3236 c-4 -16 -7 -29 -8 -30 -1 -1 -274
-15 -607 -32 -333 -17 -642 -33 -687 -37 l-83 -6 0 26 c0 13 6 28 13 33 11 7
1132 69 1306 72 l73 1 -7 -27z m-3377 -1770 c-10 -2 -26 -2 -35 0 -10 3 -2 5
17 5 19 0 27 -2 18 -5z m-2918 -3053 l0 -150 -990 0 -990 0 0 150 0 150 990 0
990 0 0 -150z"/>
<path d="M16609 16081 c-31 -32 -38 -75 -17 -114 18 -34 40 -46 83 -46 43 0
65 12 83 46 34 64 -12 143 -83 143 -27 0 -44 -8 -66 -29z"/>
<path d="M17001 16084 c-26 -22 -31 -33 -31 -70 0 -36 5 -50 26 -69 61 -56
164 -12 164 70 0 27 -8 44 -29 66 -39 38 -87 39 -130 3z"/>
<path d="M17415 16098 c-33 -19 -44 -41 -45 -86 0 -32 6 -49 25 -67 57 -58
165 -12 165 70 0 71 -83 119 -145 83z"/>
<path d="M14912 15884 c-12 -8 -20 -20 -17 -25 8 -12 165 -12 165 0 0 36 -106
54 -148 25z"/>
<path d="M14919 15760 l-24 -19 62 6 c35 3 74 1 92 -5 40 -14 41 2 1 23 -41
21 -103 19 -131 -5z"/>
<path d="M14448 15735 c-31 -17 -39 -42 -10 -30 35 14 92 17 123 6 38 -13 49
-7 27 16 -23 22 -106 27 -140 8z"/>
<path d="M14756 15725 c4 -16 33 -101 66 -188 33 -88 57 -162 53 -165 -4 -4
-28 -12 -53 -18 l-47 -12 43 -1 c51 -1 82 13 82 37 0 22 -100 284 -129 338
-19 36 -20 36 -15 9z"/>
<path d="M14988 15673 c-23 -6 -34 -49 -18 -68 27 -33 80 -11 80 32 0 18 -29
47 -42 42 -2 -1 -11 -3 -20 -6z"/>
<path d="M14531 15654 c-37 -26 -21 -74 25 -74 28 0 46 23 42 51 -4 30 -40 42
-67 23z"/>
<path d="M14647 15259 c-23 -13 -32 -73 -17 -110 15 -34 56 -59 97 -58 25 0
23 2 -15 16 -49 17 -76 58 -66 98 3 14 10 27 14 30 4 2 36 -7 71 -20 71 -28
110 -33 64 -8 -77 42 -131 61 -148 52z"/>
<path d="M8525 14073 c-28 -7 -55 -33 -55 -53 0 -18 25 -43 53 -53 9 -4 17
-12 17 -19 0 -12 -23 -83 -41 -123 -4 -11 -17 -47 -29 -80 -12 -35 -33 -72
-50 -88 -32 -30 -37 -53 -17 -81 10 -14 26 -16 102 -14 88 3 90 4 99 30 8 24
6 32 -18 57 -16 16 -25 34 -22 40 4 7 42 11 92 11 78 0 84 -2 84 -20 0 -13
-10 -24 -25 -30 -19 -7 -25 -17 -25 -38 0 -46 15 -52 122 -52 88 0 98 2 108
20 14 26 5 55 -25 78 -22 18 -34 46 -100 235 -14 39 -30 81 -35 92 -5 11 -11
29 -14 40 -3 11 -16 26 -28 34 -23 15 -156 24 -193 14z m149 -187 c9 -19 16
-46 16 -60 0 -24 -4 -26 -40 -26 -36 0 -40 3 -40 25 0 13 4 34 9 47 5 13 12
31 15 41 8 24 20 15 40 -27z"/>
<path d="M9004 14071 c-46 -11 -54 -19 -54 -51 0 -20 8 -35 25 -46 25 -16 25
-18 25 -160 0 -140 -1 -144 -24 -159 -30 -20 -38 -48 -19 -74 13 -20 24 -21
179 -21 177 0 188 3 241 53 55 52 54 144 -1 196 l-25 24 19 38 c11 21 20 51
20 67 0 36 -37 93 -70 109 -58 28 -241 41 -316 24z m230 -117 c19 -18 20 -28
6 -55 -14 -25 -114 -28 -124 -3 -9 25 -7 49 6 62 18 18 94 15 112 -4z m10
-188 c78 -33 48 -96 -50 -104 -47 -4 -60 -2 -71 14 -15 21 -17 43 -3 78 8 22
16 26 50 26 22 0 56 -6 74 -14z"/>
<path d="M9605 14064 c-42 -23 -73 -53 -104 -99 -24 -37 -26 -48 -26 -150 0
-102 2 -113 27 -151 14 -23 46 -56 69 -75 42 -33 46 -34 134 -34 114 0 151 21
211 115 26 42 28 52 28 145 0 95 -2 103 -32 151 -18 28 -51 64 -74 80 -36 25
-52 29 -122 32 -60 2 -89 -2 -111 -14z m156 -104 c32 -18 59 -83 59 -145 0
-73 -28 -130 -76 -153 -34 -16 -37 -15 -72 3 -50 28 -74 76 -74 147 0 65 21
119 55 143 25 17 79 20 108 5z"/>
<path d="M10020 14068 c-45 -17 -52 -50 -17 -87 24 -25 25 -32 29 -171 4 -161
13 -191 70 -232 29 -20 44 -23 133 -23 115 0 141 12 177 80 18 34 22 62 26
182 4 133 6 143 28 164 53 49 15 94 -80 94 -107 0 -147 -42 -91 -95 24 -23 25
-28 25 -150 0 -114 -2 -130 -21 -154 -16 -21 -29 -26 -64 -26 -37 0 -47 5 -64
29 -19 26 -21 44 -21 155 0 123 1 126 25 142 32 21 34 68 4 84 -32 18 -120 22
-159 8z"/>
<path d="M10560 14073 c-32 -11 -40 -37 -40 -124 0 -66 4 -91 16 -103 18 -19
28 -20 55 -6 14 8 19 21 19 53 0 56 17 80 55 75 l30 -3 3 -130 c4 -167 2 -175
-44 -175 -50 0 -74 -15 -74 -48 0 -49 12 -52 182 -52 149 0 158 1 168 21 7 11
9 31 6 44 -6 23 -18 28 -96 38 -12 2 -15 28 -18 150 -3 160 -1 166 53 153 22
-6 25 -12 25 -55 0 -60 26 -91 64 -73 29 13 34 40 28 137 -7 107 -3 105 -232
104 -102 0 -192 -3 -200 -6z"/>
<path d="M8505 13300 c-181 -3 302 -6 1075 -6 824 0 1250 3 1030 7 -432 7
-1621 7 -2105 -1z"/>
<path d="M9243 13098 c-33 -16 -31 -61 3 -85 l27 -20 -8 -137 c-6 -124 -9
-140 -31 -165 -13 -16 -24 -38 -24 -49 0 -34 23 -43 101 -40 71 3 74 4 84 31
8 25 6 31 -15 47 -23 18 -25 25 -24 105 1 113 15 125 44 38 26 -78 44 -103 75
-103 31 0 49 25 75 103 30 89 45 75 45 -40 0 -78 -2 -87 -22 -100 -25 -17 -30
-52 -11 -71 7 -7 42 -12 85 -12 69 0 74 1 85 26 8 16 9 30 2 38 -42 58 -43 62
-50 197 l-7 135 27 17 c39 26 36 71 -5 86 -43 15 -75 14 -108 -3 -23 -13 -33
-32 -62 -121 -29 -89 -37 -105 -53 -103 -12 2 -23 15 -28 33 -5 17 -13 39 -18
50 -5 11 -16 44 -26 73 -13 38 -27 58 -46 68 -32 16 -84 17 -115 2z"/>
<path d="M9800 13097 c-34 -17 -36 -48 -5 -77 25 -23 25 -26 25 -172 0 -147 0
-149 -24 -159 -30 -14 -38 -42 -19 -68 13 -20 23 -21 217 -21 231 0 216 -6
216 88 0 74 -8 99 -30 105 -29 7 -52 -16 -59 -59 l-6 -39 -84 -3 c-52 -2 -88
1 -97 9 -16 13 -19 72 -4 100 16 29 58 25 70 -7 8 -21 15 -25 42 -22 27 3 33
8 41 38 13 49 3 121 -19 137 -25 18 -31 17 -56 -12 -39 -45 -88 -28 -88 30 0
41 29 55 113 55 67 0 87 -10 87 -45 0 -27 29 -55 57 -55 25 0 33 24 33 102 0
85 -6 88 -215 88 -117 0 -178 -4 -195 -13z"/>
<path d="M13062 11834 c15 -15 30 -26 33 -23 2 3 -10 16 -28 29 l-32 23 27
-29z"/>
<path d="M15101 11734 c0 -11 3 -14 6 -6 3 7 2 16 -1 19 -3 4 -6 -2 -5 -13z"/>
<path d="M15091 11694 c0 -11 3 -14 6 -6 3 7 2 16 -1 19 -3 4 -6 -2 -5 -13z"/>
<path d="M15081 11654 c0 -11 3 -14 6 -6 3 7 2 16 -1 19 -3 4 -6 -2 -5 -13z"/>
<path d="M8340 10709 c47 -4 400 -7 785 -7 385 0 738 3 785 7 47 5 -306 8
-785 8 -478 0 -832 -3 -785 -8z"/>
<path d="M18825 7859 c-176 -14 -213 -18 -444 -50 -88 -12 -94 -12 -107 6 -9
12 -17 15 -23 9 -5 -5 -30 -33 -55 -63 -144 -163 -320 -266 -527 -307 l-85
-16 99 -180 c54 -98 103 -178 107 -176 23 9 1368 774 1365 776 -7 7 -244 8
-330 1z m-927 -476 c47 -41 23 -113 -38 -113 -38 0 -60 24 -60 65 0 56 56 83
98 48z"/>
<path d="M2970 6851 l0 -560 -314 -2003 -314 -2003 9 -474 c5 -261 6 -478 1
-483 -4 -4 -368 -9 -807 -11 -440 -1 3371 -2 8470 -2 5099 0 8712 2 8030 5
l-1240 5 0 85 c0 47 4 274 8 505 l7 420 -243 1595 c-219 1430 -243 1598 -231
1622 20 39 18 56 -22 201 -19 71 -36 139 -36 151 -1 11 -5 26 -10 32 -4 6 -22
98 -40 205 l-32 194 -6 535 -5 535 -77 3 -78 3 0 -334 0 -333 -33 -32 c-18
-18 -36 -32 -40 -32 -4 0 -25 18 -46 40 -42 44 -77 52 -104 22 -19 -21 -22
-64 -7 -93 10 -17 7 -19 -33 -19 -93 0 -238 51 -380 134 -53 31 -47 5 -77 336
-11 118 -23 236 -26 263 l-7 47 -6158 0 -6159 0 0 -559z m12952 -165 c20 -25
15 -31 -35 -44 -32 -9 -38 -8 -47 8 -14 26 -12 77 3 83 15 6 55 -19 79 -47z
m-487 -21 c14 -13 25 -36 25 -50 0 -14 -11 -37 -25 -50 -42 -43 -96 -29 -115
29 -25 77 58 129 115 71z m390 -719 c237 -252 432 -462 433 -467 6 -14 -47
-10 -82 6 -33 16 -669 650 -768 765 -118 139 -128 156 -128 218 l1 57 57 -60
c31 -34 251 -267 487 -519z m-11525 -761 l0 -395 -75 0 -75 0 0 395 0 395 75
0 75 0 0 -395z m1060 -305 l0 -700 -75 0 -75 0 0 700 0 700 75 0 75 0 0 -700z
m1060 305 l0 -395 -75 0 -75 0 0 395 0 395 75 0 75 0 0 -395z m1060 0 l0 -395
-75 0 -75 0 0 395 0 395 75 0 75 0 0 -395z m1060 0 l0 -395 -75 0 -75 0 0 395
0 395 75 0 75 0 0 -395z m1060 0 l0 -395 -75 0 -75 0 0 395 0 395 75 0 75 0 0
-395z m1060 0 l0 -395 -75 0 -75 0 0 395 0 395 75 0 75 0 0 -395z m1060 0 l0
-395 -75 0 -75 0 0 395 0 395 75 0 75 0 0 -395z m1060 0 l0 -395 -75 0 -75 0
0 395 0 395 75 0 75 0 0 -395z m1060 -185 l0 -580 -75 0 -75 0 0 580 0 580 75
0 75 0 0 -580z m1060 185 l0 -395 -75 0 -75 0 0 395 0 395 75 0 75 0 0 -395z
m-2660 -640 l0 -375 -75 0 -75 0 0 375 0 375 75 0 75 0 0 -375z m-7400 -280
l0 -635 -75 0 -75 0 0 635 0 635 75 0 75 0 0 -635z m1030 5 l0 -630 -75 0 -75
0 0 630 0 630 75 0 75 0 0 -630z m1070 254 l0 -376 -22 6 c-13 3 -47 6 -75 6
l-53 0 0 370 0 370 75 0 75 0 0 -376z m1060 11 l0 -365 -75 0 -75 0 0 365 0
365 75 0 75 0 0 -365z m1040 0 l0 -365 -70 0 -70 0 0 365 0 365 70 0 70 0 0
-365z m1070 1 l0 -364 -75 -4 -75 -3 0 368 0 367 75 0 75 0 0 -364z m1070
-271 l0 -635 -75 0 -75 0 0 635 0 635 75 0 75 0 0 -635z m2140 70 l0 -565 -75
0 -75 0 0 565 0 565 75 0 75 0 0 -565z m1080 -129 l0 -693 -37 -7 c-21 -3 -55
-6 -75 -6 l-38 0 0 700 0 700 75 0 75 0 0 -694z m-10100 -621 l0 -686 -72 3
-73 3 -3 670 c-1 369 0 676 3 683 3 8 28 12 75 12 l70 0 0 -685z m2120 0 l0
-686 -72 3 -73 3 -3 683 -2 682 75 0 75 0 0 -685z m1060 0 l0 -686 -72 3 -73
3 -3 683 -2 682 75 0 75 0 0 -685z m1060 0 l0 -686 -72 3 -73 3 -3 670 c-1
369 0 676 3 683 3 8 28 12 75 12 l70 0 0 -685z m1060 0 l0 -686 -72 3 -73 3
-3 670 c-1 369 0 676 3 683 3 8 28 12 75 12 l70 0 0 -685z m1060 0 l0 -686
-72 3 -73 3 -3 670 c-1 369 0 676 3 683 3 8 28 12 75 12 l70 0 0 -685z m1060
0 l0 -686 -72 3 -73 3 -3 670 c-1 369 0 676 3 683 3 8 28 12 75 12 l70 0 0
-685z m1060 0 l0 -686 -72 3 -73 3 -3 683 -2 682 75 0 75 0 0 -685z m2120 0
l0 -685 -75 0 -75 0 0 79 c0 66 3 81 19 92 18 13 20 29 23 178 3 160 3 164
-19 178 l-23 15 0 408 c0 223 3 410 7 413 3 4 37 7 75 7 l68 0 0 -685z m-1060
-187 l0 -498 -75 0 -75 0 0 493 c0 272 2 496 5 498 2 3 36 5 75 5 l70 0 0
-498z m-8480 -124 l0 -375 -72 3 -73 3 -3 365 c-1 201 -1 369 2 375 2 6 33 9
75 7 l71 -4 0 -374z m4691 366 l59 0 -2 -367 -3 -368 -72 -3 -73 -3 0 377 c0
339 2 376 16 370 9 -3 42 -6 75 -6z m-3113 -367 l-3 -368 -70 0 -70 0 -3 362
-2 362 62 4 c35 2 69 4 76 5 10 2 12 -74 10 -365z m1060 0 l-3 -368 -72 -3
-73 -3 0 371 0 370 75 0 75 0 -2 -367z m1042 -3 l0 -370 -70 0 -70 0 0 370 0
370 70 0 70 0 0 -370z m3200 0 l0 -370 -75 0 -75 0 0 370 0 370 75 0 75 0 0
-370z m1075 -197 l0 -168 -72 -3 -73 -3 0 173 0 173 72 -2 73 -1 0 -169z
m-7447 -60 l-3 -108 -72 -3 -73 -3 0 111 0 110 75 0 76 0 -3 -107z m-1028 -8
l0 -105 -75 0 -75 0 0 105 0 105 75 0 75 0 0 -105z m6335 0 l0 -100 -72 -3
-73 -3 0 106 0 106 73 -3 72 -3 0 -100z m3196 -25 c27 0 29 -3 29 -40 l0 -40
-75 0 -75 0 0 46 0 47 46 -7 c26 -3 60 -6 75 -6z m-1056 -100 c4 -6 -23 -10
-75 -10 -52 0 -79 4 -75 10 3 6 37 10 75 10 38 0 72 -4 75 -10z m1080 0 c4 -6
-22 -10 -69 -10 -44 0 -76 4 -76 10 0 6 30 10 69 10 39 0 73 -4 76 -10z
m-9587 -7 c-21 -2 -57 -2 -80 0 -24 2 -7 4 37 4 44 0 63 -2 43 -4z m1025 0
c-24 -2 -62 -2 -85 0 -24 2 -5 4 42 4 47 0 66 -2 43 -4z m1075 0 c-21 -2 -57
-2 -80 0 -24 2 -7 4 37 4 44 0 63 -2 43 -4z m1060 0 c-21 -2 -57 -2 -80 0 -24
2 -7 4 37 4 44 0 63 -2 43 -4z m1045 0 c-24 -2 -62 -2 -85 0 -24 2 -5 4 42 4
47 0 66 -2 43 -4z m1065 0 c-21 -2 -57 -2 -80 0 -24 2 -7 4 37 4 44 0 63 -2
43 -4z m1070 0 c-21 -2 -57 -2 -80 0 -24 2 -7 4 37 4 44 0 63 -2 43 -4z"/>
</g>
</svg>
