<?xml version="1.0" standalone="no"?>
<!DOCTYPE svg PUBLIC "-//W3C//DTD SVG 20010904//EN"
 "http://www.w3.org/TR/2001/REC-SVG-20010904/DTD/svg10.dtd">
<svg version="1.0" xmlns="http://www.w3.org/2000/svg"
 width="2000.000000pt" height="2000.000000pt" viewBox="0 0 2000.000000 2000.000000"
 preserveAspectRatio="xMidYMid meet">

<g transform="translate(0.000000,2000.000000) scale(0.100000,-0.100000)"
fill="#000000" stroke="none">
<path d="M16387 17815 c-496 -81 -888 -468 -974 -960 -11 -67 -14 -130 -10
-245 6 -200 33 -306 118 -479 l62 -123 -82 -205 c-45 -113 -80 -208 -77 -210
2 -2 103 23 224 57 l221 61 68 -44 c243 -157 523 -216 813 -172 457 69 837
411 950 856 11 42 20 86 20 96 -1 10 -12 -25 -26 -77 -30 -114 -104 -272 -174
-374 -63 -92 -211 -236 -307 -299 -194 -128 -397 -189 -638 -190 -240 -2 -435
56 -636 189 l-65 43 -200 -55 c-109 -29 -202 -54 -206 -54 -4 0 28 86 71 192
l78 192 -39 65 c-182 312 -204 701 -59 1032 118 268 355 501 616 606 447 180
936 78 1266 -264 152 -157 242 -319 298 -533 11 -41 20 -67 20 -57 1 10 -8 53
-19 95 -109 428 -452 751 -895 847 -103 22 -312 27 -418 10z"/>
<path d="M16490 17090 l0 -70 75 0 75 0 0 70 0 70 -75 0 -75 0 0 -70z"/>
<path d="M14373 17091 c-39 -11 -115 -38 -168 -60 l-97 -41 -32 25 c-17 13
-59 37 -91 52 -52 24 -72 28 -155 28 -82 0 -103 -4 -151 -26 -100 -47 -182
-137 -214 -237 l-17 -52 -47 0 c-100 0 -186 -49 -228 -130 -21 -39 -23 -56
-20 -132 2 -68 0 -88 -10 -88 -29 0 -108 -46 -159 -92 -155 -142 -175 -403
-44 -576 22 -29 52 -70 66 -92 l26 -39 -26 -33 c-37 -50 -66 -118 -66 -160 0
-21 -2 -38 -5 -38 -3 0 -40 24 -83 54 -372 259 -896 487 -1417 619 -464 118
-790 158 -1435 177 -195 5 -406 12 -469 14 -211 8 -895 -29 -1104 -59 -585
-85 -969 -188 -1397 -377 -1269 -559 -2010 -1666 -2149 -3213 -18 -197 -20
-221 -27 -452 l-7 -223 1637 0 1636 0 0 54 c0 119 43 358 96 533 140 463 388
816 743 1054 185 125 354 198 595 259 l109 28 91 -25 c223 -61 417 -157 601
-297 352 -268 614 -669 726 -1113 138 -546 26 -1157 -301 -1651 -360 -544
-952 -875 -1700 -951 -159 -16 -642 -6 -810 17 -80 11 -169 24 -197 27 l-53 8
0 -2602 0 -2601 1615 0 1615 0 0 1524 0 1524 113 37 c561 184 1177 537 1613
923 47 42 94 83 103 89 15 11 38 -56 244 -710 l228 -722 179 -2390 c99 -1314
180 -2398 180 -2407 0 -17 36 -18 610 -18 l610 0 0 138 c0 75 2 189 3 252 l2
115 624 1215 c343 668 708 1380 812 1581 208 402 253 516 290 728 39 218 26
486 -32 716 -15 58 -884 2449 -995 2735 -94 245 -374 1028 -374 1048 0 15 -41
151 -90 302 l-89 275 -368 13 c-202 7 -528 20 -723 31 l-355 18 -70 -67 c-175
-167 -361 -183 -523 -44 -75 64 -99 112 -231 471 l-127 348 50 32 c69 44 232
115 352 153 54 17 106 35 114 39 8 4 36 83 65 178 27 94 53 175 58 179 4 4 7
15 7 25 0 10 11 53 24 96 108 348 265 887 270 924 5 42 3 46 -25 63 -39 23
-106 108 -135 171 -13 28 -43 140 -68 250 -25 110 -54 238 -65 285 -11 47 -23
127 -26 178 -2 51 -7 105 -9 120 -2 15 -7 55 -11 89 l-7 62 -46 -3 c-67 -4
-85 2 -78 28 5 21 5 21 -10 1 -14 -19 -15 -19 -48 16 -50 53 -69 96 -74 174
-3 61 -1 74 20 105 31 46 63 62 116 57 32 -4 53 -13 76 -36 91 -88 171 24 145
205 -5 37 -15 79 -22 93 -12 24 -10 31 26 84 21 32 51 84 65 115 24 52 27 68
26 182 l0 125 91 0 c81 0 97 3 165 34 121 55 163 45 236 -60 53 -77 110 -88
250 -49 82 23 152 21 174 -5 18 -22 136 -507 165 -681 32 -185 36 -346 12
-437 -15 -58 -15 -58 6 -51 12 3 41 17 65 31 142 81 223 228 224 403 0 94 -12
151 -48 223 l-24 48 33 41 c32 41 44 52 117 116 50 43 94 113 114 181 64 220
-93 474 -325 525 -26 6 -27 7 -18 48 27 118 -55 254 -191 316 -76 36 -241 41
-347 13z m-1016 -1996 c19 -14 83 -113 83 -129 0 -4 -31 24 -70 62 -38 38 -70
72 -70 75 0 12 35 7 57 -8z m133 -719 c0 -3 -42 -26 -92 -52 -51 -26 -142 -77
-201 -115 -180 -114 -546 -379 -573 -415 -14 -18 -35 -62 -47 -96 -54 -158 -8
-713 98 -1185 35 -156 41 -213 12 -111 -83 287 -149 752 -150 1058 0 185 15
259 72 337 32 44 277 229 503 379 162 108 378 222 378 200z m-96 -2925 c13
-46 13 -52 -6 -91 -28 -56 -29 -145 -2 -191 11 -19 39 -47 61 -64 54 -39 55
-53 1 -23 -23 13 -54 42 -70 67 -35 57 -39 138 -8 210 17 38 19 53 10 75 -10
28 -14 66 -5 66 2 0 11 -22 19 -49z m896 -540 c12 -24 13 -54 1 -47 -13 9 -32
66 -21 66 5 0 14 -9 20 -19z m1000 -295 c-11 -49 -30 -71 -30 -34 0 36 21 91
31 81 4 -4 4 -25 -1 -47z m-527 -154 c10 -17 17 -41 15 -53 -2 -16 -10 -8 -31
36 -29 60 -17 73 16 17z m-528 -142 c-32 -33 -61 -58 -63 -55 -8 7 39 74 66
94 56 42 54 19 -3 -39z m1315 -101 c0 -19 -42 -109 -51 -109 -14 0 -11 17 12
71 20 45 39 64 39 38z m-2266 -146 c-9 -39 -33 -83 -44 -83 -5 0 -5 12 0 28
12 43 32 82 42 82 5 0 5 -12 2 -27z m2025 -265 c31 -61 33 -91 4 -53 -13 18
-53 100 -53 111 0 2 4 4 9 4 5 0 23 -28 40 -62z m-1584 -72 c24 -61 12 -82
-14 -26 -22 49 -26 70 -12 70 5 0 17 -20 26 -44z m799 -152 c-3 -13 -10 -21
-15 -18 -11 6 -12 68 -2 78 11 11 24 -33 17 -60z m1182 -178 c-8 -20 -20 -36
-26 -36 -13 0 -6 29 18 75 22 41 28 9 8 -39z m-2450 20 c21 -19 36 -37 31 -42
-8 -8 -78 45 -85 64 -7 21 14 13 54 -22z m944 -232 c0 -34 -4 -53 -10 -49 -5
3 -10 28 -10 56 0 27 5 49 10 49 6 0 10 -25 10 -56z m625 -5 c9 -17 15 -38 13
-47 -3 -13 -8 -9 -21 15 -16 30 -22 63 -12 63 2 0 12 -14 20 -31z m545 -173
c-1 -20 -1 -20 -20 3 -11 13 -20 30 -20 39 0 13 3 12 20 -3 11 -10 20 -28 20
-39z m-1773 -152 c36 -36 20 -42 -27 -9 -46 32 -48 35 -20 35 12 0 32 -12 47
-26z m2224 -131 c30 -49 18 -50 -25 -3 -40 44 -53 88 -16 55 12 -10 30 -34 41
-52z m-1140 -252 c-12 -21 -40 -46 -46 -39 -8 8 35 69 45 63 6 -4 7 -13 1 -24z
m-662 -71 c1 -50 -9 -85 -20 -68 -10 16 -12 99 -2 124 6 16 7 16 14 -2 4 -10
8 -35 8 -54z m1417 -147 c-9 -10 -96 78 -96 97 0 9 21 -7 51 -38 28 -29 48
-56 45 -59z m679 -80 c-22 -53 -48 -90 -52 -76 -5 15 44 113 57 113 6 0 3 -16
-5 -37z m-2343 -273 c18 -16 27 -30 20 -30 -18 0 -72 38 -72 51 0 17 19 9 52
-21z m668 -190 c0 -11 -42 -30 -63 -30 -17 1 32 40 49 40 8 0 14 -5 14 -10z
m1119 -54 c51 -52 33 -60 -22 -10 -37 33 -44 44 -30 44 11 0 34 -15 52 -34z
m583 -353 c-14 -45 -29 -70 -37 -62 -3 3 -1 19 4 35 5 16 12 42 16 58 4 21 9
26 17 18 8 -8 8 -21 0 -49z m-835 -264 c94 -152 176 -285 182 -297 10 -19 -13
-71 -171 -404 -101 -210 -184 -373 -185 -362 -1 10 -5 258 -8 549 -3 292 -8
598 -11 680 -5 132 -4 148 9 130 8 -11 91 -144 184 -296z m1263 125 c11 -25
20 -58 19 -72 -1 -24 -3 -23 -20 15 -21 47 -35 103 -25 103 4 0 16 -21 26 -46z
m-1805 -41 c-17 -42 -55 -86 -55 -65 0 14 26 69 42 90 21 25 28 11 13 -25z
m-791 -51 c31 -61 42 -97 27 -88 -16 10 -59 86 -67 120 -10 42 11 25 40 -32z
m1646 28 c0 -5 -18 -10 -39 -10 -22 0 -43 5 -46 10 -4 6 12 10 39 10 25 0 46
-4 46 -10z m-1210 -580 c11 -42 3 -104 -10 -79 -4 8 -11 40 -15 73 -8 67 8 71
25 6z m2156 -57 c-29 -57 -55 -93 -56 -76 0 30 71 156 77 136 2 -6 -7 -33 -21
-60z m-2529 -335 c18 -18 33 -39 33 -47 0 -16 -54 31 -71 62 -15 27 2 20 38
-15z m2007 -45 c19 -37 36 -103 27 -103 -8 0 -40 62 -52 103 -4 15 -4 27 1 27
5 0 16 -12 24 -27z m-1099 -87 c-18 -27 -64 -61 -71 -53 -8 8 57 77 72 77 12
0 12 -4 -1 -24z m626 -171 c0 -5 -7 -12 -16 -13 -23 -5 -47 6 -40 19 8 13 56
8 56 -6z m-1143 -377 l-13 -43 -3 46 c-2 25 3 58 10 75 l12 29 4 -32 c2 -17
-3 -51 -10 -75z m1125 3 c-5 -21 -40 -57 -48 -50 -6 7 33 69 44 69 5 0 7 -9 4
-19z m307 -212 c7 -27 10 -53 6 -56 -8 -9 -36 62 -36 92 0 40 17 21 30 -36z
m-1784 -18 c14 -22 24 -48 22 -58 -3 -13 -11 -6 -31 28 -43 72 -36 97 9 30z
m774 -397 c0 -9 -41 -42 -72 -59 -34 -19 -37 -6 -5 22 35 32 77 52 77 37z
m657 -78 c4 -35 2 -56 -4 -56 -12 0 -23 47 -23 98 0 56 20 25 27 -42z m-1259
-291 c-5 -25 -14 -45 -19 -45 -9 0 -2 111 8 140 11 30 20 -51 11 -95z m723
-538 c-18 -18 -25 1 -11 30 l14 28 4 -24 c2 -13 -1 -28 -7 -34z m-517 -68 c30
-36 34 -54 9 -40 -21 11 -58 71 -44 71 5 0 21 -14 35 -31z m-264 -410 c15 -28
18 -40 9 -37 -16 5 -79 94 -79 111 0 18 45 -30 70 -74z m466 -444 c-6 -28 -36
-71 -36 -51 0 11 21 99 28 116 9 23 15 -27 8 -65z"/>
<path d="M16490 16835 l0 -105 -37 -15 c-61 -26 -120 -81 -150 -143 -24 -49
-28 -69 -28 -142 0 -75 4 -91 30 -138 53 -98 159 -148 293 -140 132 8 216 67
248 174 8 26 14 62 14 81 l0 33 -75 0 -74 0 -11 -39 c-21 -79 -114 -120 -187
-84 -108 53 -110 196 -3 251 26 13 62 22 87 22 l43 0 0 175 0 175 -75 0 -75 0
0 -105z"/>
<path d="M17722 16810 c0 -19 2 -27 5 -17 2 9 2 25 0 35 -3 9 -5 1 -5 -18z"/>
<path d="M17732 16720 c0 -14 2 -19 5 -12 2 6 2 18 0 25 -3 6 -5 1 -5 -13z"/>
<path d="M17732 16590 c0 -14 2 -19 5 -12 2 6 2 18 0 25 -3 6 -5 1 -5 -13z"/>
<path d="M17722 16495 c0 -16 2 -22 5 -12 2 9 2 23 0 30 -3 6 -5 -1 -5 -18z"/>
<path d="M14375 16262 c-22 -11 -48 -29 -59 -40 -17 -20 -18 -22 -2 -28 10 -4
34 -2 54 4 21 6 68 16 106 21 37 5 71 12 74 16 3 3 -2 13 -11 22 -25 25 -113
28 -162 5z"/>
<path d="M14413 16071 c-35 -17 -63 -45 -63 -66 0 -3 19 4 43 17 25 13 70 24
112 28 l70 6 -37 17 c-48 22 -73 21 -125 -2z"/>
<path d="M13856 16019 c-48 -11 -103 -44 -116 -69 -14 -27 -2 -30 55 -14 28 8
84 21 125 29 41 9 78 19 83 24 23 23 -85 45 -147 30z"/>
<path d="M14170 16011 c0 -14 110 -199 202 -340 26 -40 48 -77 48 -81 0 -4
-27 -18 -60 -30 -71 -27 -73 -36 -4 -19 103 25 106 40 31 160 -129 205 -217
331 -217 310z"/>
<path d="M14505 15980 c-34 -37 7 -100 56 -85 11 4 27 17 35 31 15 22 15 26 0
49 -20 31 -65 34 -91 5z"/>
<path d="M13850 15935 c-42 -19 -70 -44 -70 -62 0 -9 14 -6 50 13 40 21 60 25
105 22 56 -3 65 1 42 20 -23 20 -90 23 -127 7z"/>
<path d="M13924 15845 c-9 -14 -13 -32 -9 -45 15 -47 86 -50 107 -5 27 59 -62
105 -98 50z"/>
<path d="M14146 15400 c-22 -17 -34 -30 -28 -30 7 0 12 -9 12 -19 0 -44 96
-81 128 -49 8 8 15 8 28 -3 16 -12 17 -12 11 4 -4 10 -7 34 -7 53 0 75 -74 97
-144 44z"/>
<path d="M14550 14529 c0 -11 9 -32 20 -46 11 -14 20 -36 20 -48 0 -48 13 -83
35 -95 28 -15 39 -38 56 -113 15 -71 5 -97 -48 -123 -47 -23 -62 -53 -68 -136
-12 -160 -15 -169 -108 -265 l-59 -62 -73 -298 c-129 -526 -247 -1034 -243
-1038 3 -3 51 0 109 5 169 17 299 28 384 35 44 3 150 12 235 20 85 8 226 21
314 29 169 14 176 17 176 70 0 28 0 28 26 11 14 -9 28 -14 30 -12 4 4 -13 84
-32 148 -12 42 284 131 481 144 50 3 118 8 151 10 l61 5 31 -107 c17 -60 36
-134 43 -165 l12 -58 41 39 c23 21 58 55 80 75 35 33 38 40 33 73 -13 76 -361
748 -717 1382 -92 164 -125 213 -168 252 -137 125 -376 219 -687 269 -146 24
-135 24 -135 -1z m229 -109 c248 -63 511 -186 591 -275 29 -32 14 -25 -50 24
-98 75 -356 182 -615 255 -78 22 -14 19 74 -4z m212 -1140 c20 -41 34 -78 30
-81 -3 -3 -64 -21 -136 -38 -71 -18 -138 -34 -147 -37 -16 -5 -15 0 2 61 29
103 51 117 102 68 20 -19 28 -22 28 -12 0 9 7 39 16 68 14 48 17 52 42 49 23
-2 33 -15 63 -78z m39 -130 c0 -11 -104 -44 -211 -66 -159 -32 -86 12 86 51
116 27 125 28 125 15z"/>
<path d="M2671 8338 c-85 -434 -90 -475 -98 -668 -7 -212 1 -265 82 -490 117
-325 123 -361 155 -910 34 -584 53 -677 191 -952 27 -55 64 -141 82 -191 l32
-92 -3 -330 c-3 -434 1 -457 136 -750 112 -245 139 -352 129 -510 -6 -87 -27
-218 -48 -299 l-11 -39 -29 44 c-57 86 -70 151 -79 399 -5 124 -14 243 -20
265 -30 100 -80 156 -225 250 -116 76 -177 134 -201 192 -8 19 -33 104 -54
188 -68 269 -165 490 -305 700 -77 116 -215 288 -223 280 -9 -9 -3 -247 9
-330 32 -242 82 -392 225 -680 158 -318 163 -345 109 -670 -48 -286 -29 -352
174 -624 183 -246 203 -355 109 -586 -99 -242 -114 -304 -97 -407 18 -113 120
-289 238 -411 167 -174 327 -242 601 -256 91 -5 -221 -9 -835 -11 l-980 -4
715 -7 c927 -8 14197 -8 15120 0 399 4 -811 8 -2792 9 l-3498 2 0 1075 0 1075
-127 0 c-71 0 -806 3 -1635 7 l-1508 6 0 -1082 0 -1081 -1842 0 -1843 1 65 25
c84 32 178 95 212 143 32 45 47 104 48 186 0 82 17 181 40 232 10 23 50 89 88
147 39 57 80 131 92 163 34 91 37 209 9 393 -15 100 -23 197 -23 275 1 144 12
181 132 417 105 205 113 239 122 528 11 312 18 343 132 550 110 201 130 283
183 750 19 173 38 331 41 350 14 84 51 196 115 353 84 203 94 260 86 497 -6
152 -46 492 -60 506 -3 4 -26 -5 -50 -19 -171 -100 -295 -276 -380 -537 -19
-58 -60 -235 -92 -395 -86 -438 -127 -546 -300 -792 -190 -269 -211 -363 -144
-638 28 -117 30 -249 5 -325 -29 -84 -56 -133 -165 -298 -197 -298 -205 -323
-206 -682 -1 -250 -14 -390 -35 -390 -10 0 -72 137 -108 240 -64 184 -77 339
-51 639 6 78 9 193 6 254 -9 190 -50 294 -226 584 -212 351 -239 475 -165 760
55 209 63 252 64 332 0 143 -40 242 -205 501 -205 322 -243 448 -331 1085 -41
304 -90 498 -170 672 -83 183 -220 345 -361 426 -8 5 -15 -10 -22 -45z m2955
-1692 c12 -94 15 -178 12 -300 l-4 -171 -77 -190 c-42 -104 -85 -224 -97 -265
-12 -44 -37 -224 -60 -430 -56 -498 -72 -565 -177 -752 -117 -211 -123 -234
-133 -538 -5 -166 -13 -268 -24 -315 -10 -42 -55 -148 -111 -265 -115 -238
-129 -291 -122 -450 3 -63 14 -155 23 -205 11 -57 18 -140 18 -225 1 -162 -7
-185 -113 -348 -98 -150 -111 -188 -122 -350 -10 -157 -25 -198 -92 -259 -70
-65 -220 -133 -293 -133 l-32 0 57 58 c60 62 123 171 160 280 73 216 66 508
-18 704 l-19 46 59 229 c97 371 327 1307 359 1458 16 77 40 221 55 320 33 233
49 283 155 505 96 199 119 268 175 521 81 365 128 527 224 777 47 121 89 277
78 288 -2 2 -10 -24 -17 -58 -7 -35 -45 -146 -86 -248 -92 -233 -140 -393
-209 -695 -71 -309 -95 -383 -173 -535 -124 -245 -137 -285 -177 -559 -43
-286 -53 -330 -312 -1376 l-146 -589 -67 134 -68 135 21 75 c17 66 20 109 22
345 3 365 8 380 205 680 66 101 130 205 142 231 57 131 62 235 18 445 -16 79
-30 164 -30 189 1 111 47 215 180 400 169 235 218 363 304 800 73 368 124 524
221 675 47 75 136 168 200 211 l50 34 12 -77 c7 -43 20 -136 29 -207z m-1573
-5193 c-7 -2 -21 -2 -30 0 -10 3 -4 5 12 5 17 0 24 -2 18 -5z"/>
<path d="M14116 2018 c-8 -57 -28 -529 -22 -535 3 -3 394 -8 871 -11 l865 -5
0 21 c0 24 -62 77 -180 154 -88 58 -426 227 -590 296 -93 38 -116 52 -118 70
-4 27 -5 27 -76 2 -208 -71 -479 -66 -676 14 -35 14 -65 26 -66 26 -2 0 -5
-15 -8 -32z m238 -159 c37 -29 35 -70 -5 -103 -35 -29 -39 -30 -73 -15 -37 17
-51 60 -32 97 24 47 66 55 110 21z"/>
</g>
</svg>
