<?xml version="1.0" standalone="no"?>
<!DOCTYPE svg PUBLIC "-//W3C//DTD SVG 20010904//EN"
 "http://www.w3.org/TR/2001/REC-SVG-20010904/DTD/svg10.dtd">
<svg version="1.0" xmlns="http://www.w3.org/2000/svg"
 width="2000.000000pt" height="2000.000000pt" viewBox="0 0 2000.000000 2000.000000"
 preserveAspectRatio="xMidYMid meet">

<g transform="translate(0.000000,2000.000000) scale(0.100000,-0.100000)"
fill="#000000" stroke="none">
<path d="M12445 16836 c-107 -16 -243 -50 -303 -77 -24 -11 -48 -16 -55 -13
-7 4 -9 4 -5 -1 4 -4 -14 -18 -40 -30 -26 -12 -232 -146 -457 -297 l-411 -276
-69 23 c-153 52 -268 69 -455 69 -182 -1 -250 -10 -382 -55 -84 -28 -211 -91
-276 -138 l-53 -38 263 -171 263 -171 97 -156 97 -155 -37 -24 c-20 -12 -121
-76 -224 -140 -104 -65 -188 -122 -188 -127 0 -18 40 -89 50 -89 5 0 107 57
226 126 118 70 223 128 232 130 13 4 48 -46 145 -202 l128 -207 -16 -239 c-8
-132 -15 -262 -15 -290 l0 -50 68 37 c273 149 526 365 630 537 85 142 103 302
48 428 -5 12 95 78 425 280 342 210 447 280 508 337 43 40 81 69 85 66 3 -3 6
-1 6 5 0 6 31 50 68 96 152 190 262 482 262 696 l0 58 -77 20 c-43 12 -105 26
-138 32 -98 17 -301 21 -400 6z m-293 -442 c63 -20 131 -82 165 -152 56 -114
31 -244 -64 -333 -64 -62 -117 -84 -203 -84 -62 0 -85 5 -132 28 -176 87 -222
312 -92 456 91 101 191 127 326 85z"/>
<path d="M10125 14918 c-39 -45 -69 -97 -62 -104 4 -5 57 57 96 114 32 46 9
39 -34 -10z"/>
<path d="M9942 14617 c-22 -26 -62 -123 -61 -147 0 -19 6 -13 26 30 28 61 54
130 49 130 -2 0 -8 -6 -14 -13z"/>
<path d="M9816 14239 c-22 -60 -36 -203 -17 -169 11 19 33 171 26 178 -2 3 -7
-1 -9 -9z"/>
<path d="M12390 12858 l0 -1345 -67 -6 c-121 -12 -236 -84 -309 -194 -71 -107
-103 -216 -138 -473 -28 -201 -73 -274 -210 -339 -44 -21 -116 -55 -158 -75
-120 -57 -191 -152 -218 -294 -24 -122 6 -238 90 -347 80 -103 83 -136 28
-273 -24 -61 -29 -86 -26 -131 7 -103 76 -204 167 -244 39 -17 65 -20 173 -18
171 2 193 -10 277 -156 45 -78 98 -129 170 -165 39 -19 62 -23 147 -23 l101 0
91 48 c113 58 144 60 242 13 74 -36 75 -39 23 -50 -21 -5 -33 -14 -36 -29 -3
-12 -15 -116 -26 -232 -12 -115 -23 -233 -26 -261 l-6 -51 -157 -53 c-174 -60
-220 -84 -337 -175 -284 -223 -593 -657 -884 -1245 -58 -118 -140 -294 -181
-390 -41 -96 -77 -178 -80 -182 -3 -4 -203 -26 -445 -48 -566 -51 -522 -44
-530 -81 -4 -16 -10 -29 -13 -29 -4 0 -83 251 -176 558 -119 395 -174 562
-188 574 -16 14 -32 17 -76 13 -32 -2 -163 -9 -292 -15 -321 -14 -534 -24
-745 -35 -49 -3 -153 -7 -230 -10 -77 -3 -174 -7 -215 -10 -41 -3 -136 -7
-210 -10 -74 -3 -164 -7 -200 -10 -36 -2 -139 -7 -229 -11 -155 -6 -166 -5
-211 16 l-47 22 -15 74 -14 74 48 47 c26 26 48 51 48 55 0 4 -29 52 -65 107
l-64 100 -31 -11 c-17 -5 -29 -12 -27 -14 2 -3 16 0 30 5 25 10 28 6 86 -87
l60 -97 -49 -50 c-47 -48 -49 -52 -41 -85 5 -19 12 -56 16 -81 5 -40 10 -49
36 -59 39 -17 43 -26 11 -26 -70 0 -336 -15 -342 -19 -4 -3 -10 22 -12 54 -5
76 -42 146 -97 188 -23 18 -48 33 -54 33 -7 0 2 -8 18 -18 79 -49 133 -155
121 -239 -23 -168 -195 -268 -341 -199 -95 45 -148 126 -148 226 0 116 75 208
198 241 26 8 25 8 -9 4 -22 -2 -60 -17 -84 -32 -167 -105 -158 -354 17 -445
110 -58 256 -27 326 69 16 23 33 42 36 42 4 1 105 -259 166 -425 4 -10 -116
-94 -134 -94 -4 0 -28 21 -54 46 l-47 46 -49 -10 c-26 -6 -64 -13 -84 -17 -33
-5 -39 -11 -63 -66 -23 -53 -30 -61 -49 -57 -12 3 -61 13 -109 24 l-88 18 0
71 -1 70 -69 47 -69 48 -51 -20 c-28 -11 -57 -20 -65 -20 -13 0 -125 159 -125
178 0 3 21 27 46 53 l46 47 -11 51 c-6 29 -11 65 -11 81 0 27 -6 33 -66 60
-74 33 -70 16 -35 170 l17 75 72 3 c68 3 73 4 87 32 9 16 29 46 46 65 l32 36
-22 55 c-11 31 -21 62 -21 69 0 8 31 34 69 58 116 76 105 74 163 22 43 -38 56
-45 77 -40 14 4 50 10 78 14 29 4 55 10 57 12 1 2 15 30 29 62 l27 59 42 -6
c32 -4 36 -3 18 3 -55 19 -64 14 -98 -54 -29 -60 -34 -65 -64 -65 -18 0 -50
-5 -72 -11 -38 -11 -39 -10 -91 41 l-52 52 -99 -63 c-55 -35 -101 -64 -102
-65 -2 -1 6 -34 19 -72 l22 -70 -27 -32 c-15 -18 -33 -45 -42 -61 -14 -28 -17
-29 -88 -29 l-73 0 -23 -107 c-12 -60 -24 -113 -26 -118 -3 -6 24 -25 60 -42
l64 -32 12 -71 12 -72 -46 -47 c-25 -26 -46 -51 -46 -55 0 -20 123 -206 136
-206 7 0 38 9 67 20 l55 21 61 -43 61 -42 0 -71 0 -72 121 -27 c67 -14 123
-25 124 -24 2 2 16 30 33 63 l30 61 73 12 73 13 50 -50 49 -49 78 48 77 49 10
-27 c5 -15 69 -182 141 -371 73 -189 131 -344 129 -345 -2 -1 -28 -21 -59 -44
-180 -135 -326 -357 -390 -590 -30 -110 -37 -354 -15 -475 57 -300 226 -550
489 -721 95 -62 979 -601 1346 -821 l115 -68 -31 -26 c-30 -25 -31 -27 -17
-54 17 -31 18 -30 -66 -46 -184 -34 -476 -41 -685 -15 -98 12 -178 15 -325 11
-273 -8 -434 -43 -603 -130 -101 -51 -165 -110 -207 -189 -28 -53 -35 -76 -38
-144 -5 -89 6 -137 44 -197 l24 -37 -1712 1 c-1448 1 -1702 3 -1643 14 87 16
137 34 225 81 175 92 370 345 401 520 14 83 2 145 -66 315 -65 162 -79 223
-72 295 8 81 52 165 164 316 186 252 198 308 143 643 -38 231 -30 266 160 620
109 205 187 539 178 769 l-3 89 -74 -89 c-201 -241 -352 -539 -420 -833 -47
-198 -70 -231 -257 -354 -114 -75 -161 -127 -185 -205 -6 -20 -15 -129 -19
-242 -6 -140 -14 -222 -25 -260 -18 -60 -64 -150 -76 -150 -22 0 -62 278 -56
385 7 111 31 192 109 360 73 156 111 259 128 340 8 38 13 170 14 375 2 362 0
357 105 569 135 274 145 327 186 933 31 475 33 485 188 908 30 84 31 88 31
275 0 199 -5 243 -55 520 -39 214 -34 199 -61 184 -50 -26 -138 -103 -186
-163 -161 -198 -239 -427 -307 -896 -44 -305 -75 -460 -121 -592 -43 -124 -82
-200 -198 -378 -194 -300 -210 -386 -126 -705 39 -151 41 -166 37 -270 -5
-139 -35 -220 -150 -408 -132 -216 -186 -317 -214 -402 -25 -75 -27 -91 -27
-260 0 -99 2 -263 5 -365 4 -169 2 -193 -19 -271 -39 -150 -129 -362 -142
-338 -21 38 -30 170 -28 374 2 187 0 230 -16 285 -25 89 -70 177 -167 321 -45
67 -100 160 -122 207 -37 77 -42 95 -45 176 -3 71 2 115 21 201 35 154 40 203
27 276 -16 86 -55 165 -145 292 -171 242 -214 354 -285 748 -89 496 -192 707
-415 855 -30 20 -58 34 -61 31 -14 -13 -55 -331 -60 -467 -9 -203 3 -279 70
-443 102 -250 104 -260 161 -783 14 -129 36 -274 49 -328 23 -90 41 -130 144
-330 57 -109 72 -185 72 -363 0 -184 13 -310 39 -386 12 -33 54 -127 96 -210
114 -231 122 -285 80 -572 -44 -301 -34 -354 104 -565 75 -113 88 -155 100
-312 7 -109 12 -134 34 -171 30 -50 106 -107 190 -141 l57 -23 -347 -6 c-190
-4 -423 -7 -516 -7 -94 0 -168 -2 -165 -5 3 -3 1195 -5 2650 -5 2305 0 2647
-2 2658 -15 21 -25 94 -63 172 -89 131 -44 252 -59 478 -59 295 0 460 20 939
113 l254 50 634 0 634 0 92 -44 c117 -56 284 -109 412 -131 119 -21 401 -24
540 -6 217 28 456 94 548 151 l48 30 3317 2 c1824 1 3169 5 2987 9 -181 3
-1430 7 -2775 8 -2436 2 -2445 2 -2354 22 290 60 564 209 774 419 209 209 348
469 411 770 19 90 23 152 29 435 6 288 11 350 34 489 14 88 27 161 29 162 1 1
35 15 75 32 280 117 478 335 566 622 16 53 56 280 107 610 67 434 90 562 136
740 188 735 197 782 197 1025 0 143 -4 182 -22 248 -45 164 -115 265 -244 354
-165 114 -286 159 -689 258 l-157 39 -36 230 c-48 301 -40 274 -83 282 -47 9
-295 -10 -537 -42 -196 -25 -615 -92 -628 -101 -5 -2 -8 49 -8 115 l0 118 -52
17 c-84 26 -175 86 -248 163 -133 140 -194 298 -218 559 -15 168 -5 903 14
1011 4 23 15 36 42 50 32 16 60 19 192 19 202 0 222 10 279 139 33 76 66 114
111 127 34 10 56 9 149 -11 120 -25 183 -24 261 5 69 25 71 24 84 -27 7 -26
25 -63 41 -83 25 -34 54 -55 186 -135 83 -50 116 -132 89 -215 -7 -21 -42 -81
-78 -133 -80 -118 -92 -147 -92 -217 0 -49 8 -70 71 -191 112 -215 107 -265
-40 -412 -140 -139 -188 -240 -179 -376 6 -89 39 -158 103 -214 111 -98 226
-95 501 13 142 56 244 117 306 182 25 26 66 59 92 73 26 14 70 49 97 77 96
102 125 215 95 374 -30 158 -18 220 69 368 l51 86 1184 5 1185 5 -1177 3
c-648 1 -1178 4 -1178 6 0 2 12 30 27 62 24 51 28 72 28 150 0 84 -2 93 -29
128 -16 21 -50 52 -75 70 -25 17 -71 56 -101 86 -45 45 -64 74 -99 157 -81
193 -124 238 -228 238 -60 0 -63 1 -75 29 -21 51 -84 120 -141 154 -81 49
-154 65 -260 59 l-87 -6 12 22 c7 12 12 58 12 102 0 66 -4 90 -26 137 -33 71
-96 133 -178 177 -86 46 -149 61 -262 61 -128 0 -184 -13 -298 -67 -89 -43
-104 -55 -225 -179 -71 -73 -145 -140 -163 -149 -43 -21 -132 -35 -177 -28
l-35 6 0 1333 0 1334 2900 0 2900 0 3 -1327 2 -1328 3 1333 2 1332 -2667 0
c-1468 0 -2779 3 -2915 7 l-248 6 0 -1345z m1325 -4198 c-6 -10 -70 -30 -97
-30 -33 0 -19 29 15 33 63 8 88 7 82 -3z m-135 -24 c0 -21 -8 -24 -80 -31 -79
-9 -73 7 10 29 70 19 70 19 70 2z m-484 -199 c66 -62 83 -98 29 -63 -45 30
-165 148 -159 157 7 12 45 -15 130 -94z m728 -419 c20 -157 17 -275 -6 -235
-14 26 -23 277 -10 277 6 0 13 -19 16 -42z m811 -10 c-4 -13 -36 -82 -72 -155
-63 -129 -93 -174 -93 -140 0 24 149 317 161 317 6 0 8 -10 4 -22z m-1295 -26
c0 -9 -246 -245 -261 -250 -40 -15 85 126 180 205 63 52 81 62 81 45z m-719
-192 c79 -104 87 -120 70 -120 -19 0 -201 238 -201 263 0 20 53 -38 131 -143z
m2262 -105 c36 -95 67 -213 67 -250 -1 -24 -3 -27 -10 -14 -15 26 -110 331
-110 354 0 19 0 19 13 0 8 -11 26 -51 40 -90z m-1306 -170 c47 -128 57 -165
45 -165 -20 0 -122 270 -122 318 1 26 1 26 19 -8 10 -19 37 -84 58 -145z
m-1737 -27 c-50 -43 -133 -98 -139 -93 -8 9 42 55 103 96 66 44 89 43 36 -3z
m483 -11 c-20 -32 -223 -296 -233 -302 -43 -26 86 169 193 291 22 25 54 34 40
11z m687 -238 c50 -128 68 -189 56 -189 -17 0 -136 298 -136 338 1 33 29 -19
80 -149z m1415 91 c-12 -20 -367 -190 -396 -190 -26 0 12 25 114 77 200 101
299 140 282 113z m-12725 -161 c150 -148 224 -330 300 -738 78 -416 107 -495
277 -749 174 -260 189 -321 136 -551 -44 -189 -36 -304 30 -436 11 -22 61
-103 112 -180 180 -273 187 -294 189 -635 1 -210 5 -267 19 -321 l18 -67 -62
-123 -63 -124 -48 195 c-82 331 -306 1281 -322 1365 -9 44 -29 168 -46 276
-34 228 -48 276 -134 448 -82 163 -117 262 -161 463 -78 352 -124 511 -208
718 -27 69 -58 154 -69 190 -15 56 -17 59 -12 20 3 -25 17 -76 31 -115 102
-277 156 -458 214 -720 69 -315 96 -399 180 -567 83 -165 104 -237 134 -448
15 -102 40 -248 55 -325 34 -161 258 -1095 326 -1353 l45 -172 -37 -108 c-35
-99 -38 -118 -42 -247 -5 -162 12 -273 59 -396 31 -82 110 -203 155 -238 l27
-21 -36 0 c-50 0 -162 44 -227 89 -31 21 -68 58 -83 84 -26 41 -30 57 -37 179
-10 156 -20 186 -101 313 -32 50 -70 117 -86 150 -26 56 -28 68 -27 185 0 73
7 162 17 215 10 50 20 133 24 186 8 137 -11 211 -103 400 -116 237 -116 234
-124 514 -9 290 -16 322 -111 504 -114 219 -127 273 -174 726 -40 389 -43 403
-149 660 l-61 150 0 210 c0 168 5 237 23 347 12 75 22 139 22 143 0 15 70 -36
130 -96z m10805 -191 c29 -125 45 -219 44 -251 l-1 -32 -14 32 c-15 34 -64
266 -64 302 0 46 19 17 35 -51z m2511 43 c-3 -5 -41 -21 -84 -35 -121 -41
-302 -71 -276 -47 9 9 356 100 363 95 1 -1 0 -7 -3 -13z m-3157 -155 c63 -127
84 -185 62 -171 -15 9 -151 282 -151 302 0 34 32 -13 89 -131z m2396 24 c8
-97 -9 -268 -31 -315 -13 -28 -14 -26 -9 40 3 39 8 141 12 228 7 169 17 187
28 47z m-2801 -77 c-32 -81 -111 -244 -125 -257 -18 -19 -9 15 26 101 39 92
91 200 108 221 21 26 18 2 -9 -65z m2236 -62 c0 -14 -40 -22 -151 -28 -104 -6
-169 1 -154 15 6 6 51 9 268 20 20 1 37 -2 37 -7z m-426 -315 c64 -106 116
-197 116 -201 0 -19 -48 37 -103 120 -80 121 -155 275 -133 275 2 0 56 -87
120 -194z m661 -201 c135 -161 138 -166 131 -173 -19 -19 -267 279 -266 319 1
15 2 14 135 -146z m-5281 91 c47 -19 66 -51 66 -109 0 -60 -26 -101 -76 -117
-65 -22 -137 8 -169 70 -19 37 -19 63 0 101 32 61 108 85 179 55z m3261 -42
c-32 -24 -277 -142 -310 -149 -29 -6 -29 -6 -10 10 33 28 296 155 319 155 21
-1 21 -1 1 -16z m955 0 c0 -21 -163 -274 -177 -274 -24 0 -17 14 84 168 64 97
93 130 93 106z m-1588 -76 c2 -75 -3 -192 -8 -197 -9 -10 -13 7 -14 74 -3 128
0 175 10 175 6 0 11 -24 12 -52z m3589 -42 c-23 -28 -341 -154 -341 -136 0 13
63 44 205 101 128 52 156 59 136 35z m-2542 -226 c38 -100 61 -189 52 -195 -5
-2 -14 8 -21 23 -21 46 -80 225 -80 245 0 34 18 7 49 -73z m-1740 21 c15 -11
34 -21 42 -23 8 -2 18 -8 24 -14 5 -7 118 -79 250 -162 l240 -149 215 -6 c118
-4 321 -9 450 -12 129 -4 245 -8 258 -11 23 -5 3 -21 -458 -380 l-65 -51 -618
47 c-485 37 -622 50 -633 62 -16 15 -166 499 -158 507 12 12 401 210 412 211
8 0 26 -9 41 -19z m2082 1 c-5 -9 -19 -26 -31 -37 l-22 -20 18 38 c10 20 24
37 31 37 10 0 11 -5 4 -18z m-797 -44 c16 -59 45 -166 56 -215 10 -44 -7 -43
-25 1 -18 43 -51 167 -60 224 -10 60 10 53 29 -10z m-787 -167 c75 -99 82
-127 14 -54 -63 67 -171 211 -171 226 1 16 80 -71 157 -172z m2958 -133 c-46
-171 -44 -163 -56 -151 -12 12 28 175 62 252 34 77 31 37 -6 -101z m555 -96
c0 -181 -8 -275 -21 -266 -10 6 -12 365 -3 413 14 70 24 10 24 -147z m-611
-120 c0 -15 -6 -45 -14 -67 l-13 -40 -1 50 c-1 59 8 97 20 89 5 -3 9 -17 8
-32z m-4096 -1373 c90 -58 115 -79 105 -87 -10 -8 -40 10 -123 74 -170 133
-168 134 18 13z m1579 -1119 c2 -22 1 -40 -2 -40 -11 0 -67 45 -69 55 -2 9 27
22 55 24 7 1 14 -17 16 -39z m-1661 -506 c37 -40 159 -137 209 -167 l45 -27
-555 1 -555 1 130 24 c76 14 243 59 400 108 149 46 277 84 286 85 8 1 26 -11
40 -25z m2279 -118 c56 -20 144 -45 194 -55 l91 -20 -314 0 -315 -1 27 28 c23
23 50 76 70 135 6 16 13 14 75 -17 38 -19 115 -51 172 -70z"/>
<path d="M1631 7034 c0 -11 3 -14 6 -6 3 7 2 16 -1 19 -3 4 -6 -2 -5 -13z"/>
<path d="M1642 6990 c0 -14 2 -19 5 -12 2 6 2 18 0 25 -3 6 -5 1 -5 -13z"/>
<path d="M9794 13767 c1 -50 7 -92 14 -99 9 -9 11 3 6 52 -11 116 -24 145 -20
47z"/>
<path d="M13290 13840 c-10 -6 701 -9 2015 -9 1141 0 2021 4 2010 9 -29 12
-4006 12 -4025 0z"/>
<path d="M9861 13448 c-1 -22 46 -150 61 -163 17 -17 -2 54 -32 120 -16 33
-29 52 -29 43z"/>
<path d="M10020 13082 c0 -27 77 -159 87 -149 5 6 -48 113 -71 142 -9 12 -15
15 -16 7z"/>
<path d="M15433 12993 c350 -2 924 -2 1275 0 350 1 63 2 -638 2 -701 0 -988
-1 -637 -2z"/>
<path d="M1770 11735 l0 -1055 1518 2 1517 3 -1512 2 -1513 3 0 1045 0 1045
2588 3 2587 2 -2592 3 -2593 2 0 -1055z"/>
<path d="M10224 12718 c18 -45 78 -138 89 -138 11 0 -47 108 -78 145 l-26 30
15 -37z"/>
<path d="M15220 12710 c-168 -3 215 -6 850 -6 708 0 1021 2 810 6 -398 8
-1216 8 -1660 0z"/>
<path d="M3428 12503 c519 -2 1365 -2 1880 0 515 1 91 2 -943 2 -1034 0 -1456
-1 -937 -2z"/>
<path d="M15130 12420 c-10 -6 320 -10 940 -9 542 0 946 4 935 9 -28 12 -1856
12 -1875 0z"/>
<path d="M10415 12379 c14 -43 64 -147 74 -153 14 -9 -4 49 -36 112 -29 57
-50 80 -38 41z"/>
<path d="M15030 12129 c96 -3 315 -7 485 -7 171 0 389 4 485 7 109 5 -73 7
-485 7 -412 0 -594 -2 -485 -7z"/>
<path d="M8560 12030 c-17 -5 6 -8 67 -9 52 -1 95 3 98 9 7 12 -128 12 -165 0z"/>
<path d="M10560 12024 c0 -24 41 -169 50 -178 15 -15 12 11 -11 94 -18 68 -39
112 -39 84z"/>
<path d="M9000 11974 c35 -14 78 -28 95 -31 28 -5 29 -4 10 9 -27 20 -113 48
-144 47 -18 0 -7 -8 39 -25z"/>
<path d="M8280 11949 c-48 -22 -114 -68 -107 -76 4 -3 163 80 176 93 11 11
-28 2 -69 -17z"/>
<path d="M9314 11821 c28 -31 136 -113 136 -104 0 11 -75 84 -110 107 -33 22
-47 20 -26 -3z"/>
<path d="M4467 11823 c375 -2 991 -2 1370 0 378 1 72 2 -682 2 -753 0 -1063
-1 -688 -2z"/>
<path d="M7967 11701 c-37 -42 -72 -100 -64 -108 3 -2 26 24 53 59 26 35 52
69 57 76 6 8 6 12 -1 12 -5 0 -26 -18 -45 -39z"/>
<path d="M10652 11565 c0 -44 4 -91 8 -105 11 -33 11 113 0 155 -5 21 -8 7 -8
-50z"/>
<path d="M4595 11570 c66 -4 318 -7 560 -7 242 0 494 3 560 7 66 3 -186 6
-560 6 -374 0 -626 -3 -560 -6z"/>
<path d="M9587 11533 c12 -31 74 -143 84 -148 14 -9 -19 75 -49 122 -27 43
-47 58 -35 26z"/>
<path d="M7785 11365 c-10 -22 -19 -67 -21 -100 l-4 -60 25 90 c27 99 27 133
0 70z"/>
<path d="M4218 11313 c239 -2 626 -2 860 0 235 1 40 2 -433 2 -473 0 -665 -1
-427 -2z"/>
<path d="M10646 11188 c-15 -109 -17 -153 -7 -137 10 15 31 125 31 162 0 35
-18 16 -24 -25z"/>
<path d="M9733 11174 c3 -11 8 -46 12 -78 9 -81 24 -116 24 -59 1 53 -17 141
-31 149 -6 4 -8 -1 -5 -12z"/>
<path d="M7760 10978 c0 -38 27 -138 41 -152 14 -15 11 7 -12 97 -24 94 -29
104 -29 55z"/>
<path d="M10570 10830 c-20 -37 -61 -152 -56 -157 7 -7 52 85 65 131 12 46 8
58 -9 26z"/>
<path d="M12537 10786 c-49 -18 -67 -34 -67 -59 0 -18 4 -19 53 -13 28 3 85 6
125 6 63 0 73 2 70 16 -9 47 -112 76 -181 50z"/>
<path d="M9756 10763 c-17 -88 -27 -156 -22 -160 10 -11 28 52 33 120 6 67 -1
91 -11 40z"/>
<path d="M13184 10656 c-71 -31 -51 -56 46 -56 36 0 105 -7 153 -15 48 -9 92
-13 97 -10 20 12 -12 47 -63 71 -60 28 -180 33 -233 10z"/>
<path d="M7900 10619 c0 -17 89 -139 101 -139 12 0 8 8 -48 88 -45 63 -53 71
-53 51z"/>
<path d="M12537 10570 c-40 -7 -88 -37 -95 -60 -4 -10 1 -11 19 -6 101 31 130
31 237 0 35 -10 18 19 -26 44 -44 24 -84 31 -135 22z"/>
<path d="M13230 10538 c-25 -13 -46 -31 -48 -40 -3 -16 0 -17 39 -3 23 8 65
15 94 15 29 0 71 -7 94 -15 39 -14 42 -13 39 3 -4 24 -85 62 -133 62 -22 0
-61 -10 -85 -22z"/>
<path d="M12918 10520 c-68 -153 -94 -219 -147 -359 -34 -88 -61 -169 -61
-179 0 -35 31 -51 102 -54 86 -3 98 8 19 17 -104 12 -104 10 -39 176 74 187
149 410 145 423 -2 6 -11 -5 -19 -24z"/>
<path d="M10353 10423 c-64 -88 -70 -98 -50 -87 19 11 74 80 94 117 27 53 6
38 -44 -30z"/>
<path d="M12480 10420 c-26 -26 -25 -51 1 -84 40 -50 122 -24 122 39 0 59 -80
88 -123 45z"/>
<path d="M13226 10418 c-22 -32 -20 -61 7 -86 46 -43 117 -17 117 42 0 42 -26
66 -73 66 -26 0 -40 -6 -51 -22z"/>
<path d="M9648 10378 c-26 -40 -68 -127 -68 -140 1 -21 29 21 62 90 30 63 34
92 6 50z"/>
<path d="M8185 10289 c43 -43 103 -85 111 -76 7 6 -126 117 -140 117 -6 0 8
-18 29 -41z"/>
<path d="M10079 10140 c-86 -64 -110 -92 -50 -59 50 28 129 94 121 103 -3 3
-35 -17 -71 -44z"/>
<path d="M8485 10085 c32 -26 143 -77 156 -73 13 4 -110 71 -151 82 -24 7 -25
7 -5 -9z"/>
<path d="M9423 10027 c-38 -41 -83 -101 -83 -112 0 -13 67 54 96 97 34 49 27
57 -13 15z"/>
<path d="M9710 9937 c-54 -20 -77 -33 -64 -35 25 -4 123 29 156 52 35 24 3 19
-92 -17z"/>
<path d="M8854 9926 c10 -8 49 -22 87 -30 78 -18 92 -19 85 -7 -5 7 -42 18
-171 47 -19 5 -19 5 -1 -10z"/>
<path d="M13106 9835 c-17 -43 -20 -46 -47 -40 -32 7 -116 -25 -125 -49 -3 -8
-1 -23 5 -35 10 -17 8 -20 -14 -23 -47 -6 -30 -23 30 -30 33 -4 81 -10 106
-14 80 -10 117 31 85 95 -11 21 -14 43 -10 70 3 21 2 46 -3 56 -8 14 -13 8
-27 -30z"/>
<path d="M9240 9860 c0 -13 160 -13 180 0 10 7 -16 10 -82 10 -59 0 -98 -4
-98 -10z"/>
<path d="M9124 9696 c-37 -37 -63 -70 -60 -74 4 -3 37 24 73 61 37 36 64 70
60 74 -4 4 -37 -24 -73 -61z"/>
<path d="M8847 9411 c-69 -71 -81 -89 -48 -72 37 20 138 141 118 141 -2 0 -34
-31 -70 -69z"/>
<path d="M17710 8395 l0 -815 140 0 140 0 0 815 0 815 -140 0 -140 0 0 -815z"/>
<path d="M8600 9129 c-23 -29 -48 -66 -57 -83 l-15 -31 31 30 c37 34 96 123
88 131 -3 3 -24 -18 -47 -47z"/>
<path d="M17170 8300 l0 -720 135 0 135 0 0 720 0 720 -135 0 -135 0 0 -720z"/>
<path d="M16620 8215 l0 -635 135 0 135 0 0 635 0 635 -135 0 -135 0 0 -635z"/>
<path d="M8386 8767 c-21 -43 -35 -84 -33 -90 3 -7 21 23 42 65 20 43 35 83
32 90 -3 7 -21 -22 -41 -65z"/>
<path d="M16110 8030 l0 -450 135 0 135 0 0 450 0 450 -135 0 -135 0 0 -450z"/>
<path d="M8272 8438 c-17 -54 -34 -149 -28 -155 8 -9 24 39 37 112 12 72 7 96
-9 43z"/>
<path d="M8216 8058 c-10 -38 -7 -168 4 -168 6 0 10 38 10 95 0 97 -3 113 -14
73z"/>
<path d="M6778 7753 c7 -3 16 -2 19 1 4 3 -2 6 -13 5 -11 0 -14 -3 -6 -6z"/>
<path d="M6818 7743 c6 -2 18 -2 25 0 6 3 1 5 -13 5 -14 0 -19 -2 -12 -5z"/>
<path d="M6868 7733 c7 -3 16 -2 19 1 4 3 -2 6 -13 5 -11 0 -14 -3 -6 -6z"/>
<path d="M8230 7673 c0 -33 34 -183 41 -183 6 0 7 16 4 38 -14 82 -29 143 -37
148 -4 3 -8 2 -8 -3z"/>
<path d="M7015 7510 c10 -11 20 -20 23 -20 3 0 -3 9 -13 20 -10 11 -20 20 -23
20 -3 0 3 -9 13 -20z"/>
<path d="M8331 7278 c-1 -24 47 -144 63 -158 10 -8 12 -5 9 12 -7 36 -71 165
-72 146z"/>
</g>
</svg>
