<?xml version="1.0" standalone="no"?>
<!DOCTYPE svg PUBLIC "-//W3C//DTD SVG 20010904//EN"
 "http://www.w3.org/TR/2001/REC-SVG-20010904/DTD/svg10.dtd">
<svg version="1.0" xmlns="http://www.w3.org/2000/svg"
 width="2000.000000pt" height="2000.000000pt" viewBox="0 0 2000.000000 2000.000000"
 preserveAspectRatio="xMidYMid meet">

<g transform="translate(0.000000,2000.000000) scale(0.100000,-0.100000)"
fill="#000000" stroke="none">
<path d="M4230 18854 c-285 -24 -432 -47 -642 -100 -369 -93 -662 -225 -998
-449 -440 -294 -801 -694 -1035 -1148 -69 -133 -140 -295 -133 -303 2 -2 25
47 51 109 146 350 404 709 727 1013 248 232 560 440 871 580 652 293 1464 363
2164 188 511 -128 940 -366 1313 -728 461 -447 721 -963 822 -1631 41 -270 38
-702 -6 -933 -73 -385 -190 -651 -568 -1297 -198 -338 -292 -519 -349 -675
-116 -313 -187 -661 -217 -1060 -11 -144 -12 -765 -1 -890 3 -41 6 134 6 390
0 378 4 494 18 620 46 401 120 715 236 998 71 172 88 204 324 607 393 672 505
931 579 1342 21 117 23 156 22 443 0 275 -3 333 -22 460 -102 658 -360 1180
-797 1615 -472 469 -1045 741 -1746 830 -117 15 -522 27 -619 19z"/>
<path d="M4209 18203 l-185 -3 -50 -231 -49 -231 -120 -42 c-103 -36 -309
-131 -340 -156 -6 -5 -93 42 -213 116 l-203 124 -207 -213 c-261 -267 -332
-342 -332 -351 0 -3 53 -89 118 -189 65 -100 121 -187 125 -194 4 -7 -12 -51
-36 -100 -51 -100 -112 -259 -129 -334 -7 -28 -17 -53 -23 -55 -6 -3 -109 -28
-230 -57 l-220 -53 4 -390 c2 -214 5 -390 6 -392 1 -1 105 -24 230 -50 l228
-48 36 -105 c20 -57 65 -164 102 -238 l66 -135 -123 -200 -123 -200 227 -221
c125 -121 252 -244 282 -272 l56 -52 196 129 196 128 99 -48 c103 -50 229 -99
325 -125 l56 -16 47 -192 c25 -106 50 -210 56 -231 l11 -39 386 7 c243 4 389
11 393 17 3 6 25 105 49 220 24 116 48 216 54 223 6 7 54 27 106 45 52 18 155
61 227 96 73 36 135 65 139 65 3 0 92 -52 198 -116 105 -64 194 -118 197 -120
4 -2 129 122 279 276 l273 280 -26 38 c-14 20 -72 109 -130 198 l-104 160 45
89 c51 102 101 232 126 326 l18 65 230 55 231 54 -5 387 c-3 214 -7 390 -10
393 -2 3 -103 26 -224 51 -120 25 -224 51 -230 58 -6 6 -24 52 -40 101 -16 50
-59 152 -97 228 -59 120 -66 140 -56 160 7 12 61 102 121 199 59 97 108 178
108 181 0 2 -125 126 -279 275 l-278 271 -198 -128 -198 -129 -106 51 c-58 29
-167 72 -241 97 l-135 45 -54 228 -55 227 -205 -2 c-114 -2 -290 -4 -392 -5z
m159 -1418 c125 -25 250 -93 348 -190 68 -68 89 -96 127 -175 60 -127 72 -181
71 -325 -1 -100 -6 -134 -27 -200 -29 -88 -77 -175 -138 -247 -22 -27 -36 -48
-32 -48 10 0 596 -585 618 -617 11 -16 12 -23 4 -23 -6 0 -154 142 -327 315
-304 304 -316 315 -336 300 -126 -93 -202 -128 -331 -152 -324 -59 -660 139
-770 453 -36 104 -46 282 -21 389 26 109 88 224 168 310 170 182 403 258 646
210z"/>
<path d="M4072 16750 c-247 -65 -428 -250 -487 -498 -25 -104 -17 -261 20
-360 38 -105 89 -187 160 -256 216 -212 529 -254 795 -109 90 50 214 177 263
270 174 333 42 735 -298 904 -140 69 -306 87 -453 49z"/>
<path d="M1391 16779 c-12 -35 -21 -68 -20 -73 0 -6 11 20 25 58 13 38 22 71
20 73 -2 2 -13 -24 -25 -58z"/>
<path d="M9850 15423 l-295 -3 -53 -253 c-29 -138 -58 -273 -63 -298 l-10 -45
-132 -44 c-73 -25 -210 -83 -305 -131 l-173 -86 -257 158 -257 157 -57 -57
c-31 -31 -189 -193 -351 -360 l-294 -304 111 -171 c62 -94 136 -208 166 -254
l53 -84 -61 -126 c-74 -154 -112 -249 -152 -384 -17 -56 -31 -103 -33 -104 -1
-1 -130 -32 -287 -70 -157 -37 -289 -71 -293 -74 -4 -4 -4 -231 0 -505 l8
-498 275 -58 c151 -32 285 -61 296 -64 18 -4 29 -27 59 -117 48 -144 92 -246
165 -384 l59 -111 -159 -259 -158 -258 222 -215 c121 -119 283 -276 358 -349
82 -81 142 -132 150 -129 7 3 74 45 148 94 l135 89 6 -71 c14 -164 131 -303
302 -357 83 -27 202 -27 280 0 l58 19 -7 -41 c-18 -110 10 -288 52 -331 23
-22 39 -19 89 20 52 39 112 59 152 49 86 -21 140 -75 164 -166 28 -104 -34
-222 -149 -279 -26 -13 -49 -25 -51 -26 -11 -6 154 -265 223 -347 51 -61 181
-159 261 -197 68 -32 248 -64 303 -54 19 4 41 17 54 35 17 24 29 30 58 30 46
0 132 25 190 56 25 13 74 30 110 39 83 20 282 87 276 93 -4 3 -228 -54 -283
-73 -7 -2 8 21 32 51 50 61 77 109 95 172 7 23 15 42 18 42 2 0 16 -8 30 -19
45 -31 100 -43 175 -39 107 5 189 47 287 146 213 213 237 501 59 697 -65 70
-137 106 -228 113 -122 8 -246 -47 -302 -137 l-29 -45 0 48 c0 27 7 76 16 110
31 117 -4 256 -86 345 -17 18 -30 34 -28 35 2 1 63 24 137 50 132 47 281 114
392 176 l56 31 249 -152 c137 -84 256 -153 264 -155 20 -3 704 702 697 719 -3
7 -74 119 -158 247 -83 129 -154 242 -156 251 -3 8 11 45 30 80 53 96 131 290
170 419 l35 115 38 12 c22 6 155 39 296 73 l257 62 -5 452 c-3 248 -7 474 -10
502 l-5 51 -272 57 c-150 32 -282 60 -294 63 -17 4 -30 30 -69 146 -28 80 -85
214 -131 306 l-82 163 68 112 c37 61 106 175 154 252 48 78 87 146 87 150 0 8
-708 699 -716 699 -2 0 -116 -74 -255 -164 l-252 -163 -126 61 c-153 73 -249
111 -383 151 -56 17 -103 32 -105 33 -2 2 -107 430 -138 565 l-5 22 -208 -2
c-114 -2 -340 -4 -502 -5z m500 -1823 c174 -50 334 -145 477 -283 105 -102
177 -201 234 -322 68 -144 82 -216 83 -405 0 -154 -2 -170 -28 -250 -15 -47
-41 -110 -58 -140 -107 -194 -320 -392 -550 -510 l-68 -35 0 -142 0 -143 -314
0 c-172 0 -328 3 -345 6 l-31 6 7 113 6 113 -64 32 c-314 158 -540 411 -621
695 -20 70 -23 102 -22 250 0 139 4 186 21 255 47 184 129 341 245 464 147
158 326 257 553 306 126 27 365 22 475 -10z m44 -2396 c109 -15 4 -24 -296
-24 -302 0 -406 7 -313 21 55 8 551 10 609 3z m-65 -130 c127 -14 31 -24 -226
-24 -254 0 -351 8 -253 21 64 8 405 10 479 3z m-110 -140 c14 -12 -22 -19
-102 -19 -98 1 -147 9 -147 25 0 10 238 3 249 -6z"/>
<path d="M9885 13580 c-421 -91 -689 -358 -786 -783 -28 -121 -30 -300 -5
-411 58 -256 219 -473 479 -647 48 -32 114 -71 147 -86 l59 -28 -5 -105 c-3
-58 -7 -111 -10 -117 -2 -10 14 -13 60 -13 l64 0 6 143 c3 78 8 265 12 415 5
230 4 272 -8 272 -23 0 -82 48 -105 88 -61 101 5 223 101 186 30 -11 40 -48
46 -154 l5 -105 33 -3 c46 -5 133 39 166 83 14 18 26 37 26 42 0 4 -20 28 -45
52 -59 58 -89 121 -82 169 7 43 46 82 82 82 93 0 138 -109 103 -247 -12 -50
-9 -55 60 -80 25 -9 32 -9 32 0 1 48 23 154 39 185 39 77 112 93 168 37 34
-34 35 -38 31 -93 -3 -40 -11 -67 -28 -90 -28 -38 -111 -82 -155 -82 l-32 0
-7 -77 c-7 -87 -56 -791 -56 -810 0 -9 21 -13 71 -13 l72 0 -5 141 -5 140 66
34 c246 123 477 345 571 547 53 114 65 178 64 343 -1 178 -19 259 -89 402
-134 271 -393 488 -686 574 -109 31 -331 36 -454 9z"/>
<path d="M10096 12615 c-28 -28 -29 -54 -2 -108 14 -29 41 -67 60 -86 l34 -33
11 38 c29 104 -7 204 -73 204 -8 0 -21 -7 -30 -15z"/>
<path d="M10405 12527 c-25 -25 -34 -45 -44 -98 -17 -99 -15 -109 14 -109 36
0 98 34 129 70 36 43 37 110 1 145 -33 34 -61 31 -100 -8z"/>
<path d="M9824 12455 c-23 -23 -26 -32 -21 -78 4 -44 10 -56 45 -89 23 -21 46
-38 52 -38 5 0 11 24 12 53 4 111 -5 147 -42 167 -17 9 -25 6 -46 -15z"/>
<path d="M10165 12293 c-45 -54 -122 -93 -182 -93 -24 0 -43 -1 -44 -2 -2 -8
-28 -692 -29 -745 l0 -63 178 0 179 0 7 188 c7 213 34 656 41 689 4 18 -2 24
-33 33 -20 7 -46 18 -58 25 -19 12 -24 10 -59 -32z"/>
<path d="M16272 14280 c-29 -4 -56 -10 -58 -13 -6 -6 196 1 361 13 105 7 102
7 -70 7 -99 0 -204 -3 -233 -7z"/>
<path d="M17181 14196 c3 -3 51 -22 105 -40 54 -19 150 -52 212 -75 61 -22
112 -38 112 -35 0 10 -145 72 -250 107 -104 35 -191 56 -179 43z"/>
<path d="M15650 14159 c-126 -34 -360 -127 -360 -144 0 -2 37 9 83 26 45 17
145 53 221 80 179 63 198 76 56 38z"/>
<path d="M18041 13817 c18 -16 357 -255 369 -261 8 -4 -10 16 -40 44 -77 71
-297 220 -326 220 -4 0 -5 -2 -3 -3z"/>
<path d="M14794 13718 c-75 -55 -264 -241 -264 -259 0 -6 57 43 127 108 70 65
147 137 172 160 25 24 43 43 40 43 -3 0 -37 -23 -75 -52z"/>
<path d="M16103 13521 c-100 -3 -185 -9 -189 -13 -4 -4 -23 -92 -43 -194 l-36
-186 -91 -33 c-51 -18 -139 -57 -197 -87 l-106 -56 -168 100 -168 99 -85 -89
c-47 -48 -148 -154 -224 -235 l-139 -147 107 -160 c58 -88 106 -163 106 -167
0 -3 -22 -59 -49 -122 -28 -64 -60 -152 -72 -196 -13 -44 -24 -81 -25 -83 -1
-2 -86 -25 -189 -52 -103 -26 -188 -50 -189 -52 -4 -4 15 -642 19 -646 1 -1
88 -19 193 -39 l192 -37 21 -65 c11 -36 50 -126 86 -199 35 -72 62 -135 60
-140 -2 -4 -45 -78 -96 -164 -51 -87 -91 -161 -89 -165 1 -5 86 -87 188 -182
102 -96 206 -195 231 -219 l47 -44 164 110 164 109 54 -27 c70 -35 236 -97
299 -112 l48 -11 49 -191 49 -191 30 2 c17 1 163 5 326 8 l296 7 33 177 c18
97 36 184 39 194 4 11 36 28 86 46 78 27 260 113 279 132 19 18 41 8 191 -81
83 -49 158 -92 166 -95 10 -4 85 68 236 228 l221 234 -109 165 -109 164 39 85
c40 85 82 201 101 275 l10 41 158 41 c86 23 172 45 191 48 l33 7 -6 261 c-4
144 -9 291 -12 328 l-6 66 -191 37 -192 37 -24 75 c-13 41 -52 130 -86 198
l-62 123 99 168 100 168 -44 39 c-24 22 -74 70 -113 107 -38 36 -125 119 -193
183 l-124 116 -163 -109 -164 -109 -83 38 c-85 40 -200 82 -275 101 -48 12
-45 6 -93 200 -17 69 -36 140 -41 158 l-11 32 -136 -2 c-75 -1 -219 -4 -319
-7z m-550 -2618 c5 -4 371 -10 813 -11 476 -2 804 -7 804 -13 0 -7 -571 -13
-1512 -14 l-143 0 4 745 c2 410 6 750 10 755 3 6 8 -319 11 -722 3 -402 9
-735 13 -740z m1447 950 c0 -98 -4 -184 -9 -191 -9 -15 -21 112 -21 232 l0 79
-29 -24 c-17 -13 -163 -139 -326 -279 -163 -140 -303 -255 -310 -255 -8 0 -57
40 -109 88 -62 57 -100 86 -108 81 -7 -4 -49 -38 -93 -74 -191 -158 -308 -250
-313 -246 -6 6 37 46 252 230 88 75 163 135 167 134 5 -2 51 -42 103 -90 52
-49 97 -88 100 -88 4 0 93 73 199 163 105 89 254 213 330 275 l139 112 -186 0
c-113 0 -186 4 -186 10 0 9 68 13 303 18 l97 2 0 -177z"/>
<path d="M18775 13185 c30 -52 117 -166 122 -161 9 9 -45 92 -93 142 -34 36
-42 41 -29 19z"/>
<path d="M14200 13018 c-66 -91 -199 -342 -187 -354 3 -3 45 68 95 158 49 90
100 180 112 201 30 50 17 47 -20 -5z"/>
<path d="M13771 12124 c-35 -83 -121 -339 -121 -358 1 -24 32 49 95 228 69
198 82 265 26 130z"/>
<path d="M6243 11415 c0 -22 2 -30 4 -17 2 12 2 30 0 40 -3 9 -5 -1 -4 -23z"/>
<path d="M6252 11345 c0 -16 4 -43 8 -60 11 -42 11 -1 1 50 -7 34 -9 35 -9 10z"/>
<path d="M13470 11218 c-34 -91 -110 -332 -110 -351 1 -29 24 31 79 198 61
187 74 235 67 235 -2 0 -18 -37 -36 -82z"/>
<path d="M6272 11230 c0 -14 4 -36 8 -50 6 -20 8 -21 8 -5 0 11 -4 34 -8 50
-7 27 -8 27 -8 5z"/>
<path d="M6291 11134 c0 -11 3 -14 6 -6 3 7 2 16 -1 19 -3 4 -6 -2 -5 -13z"/>
<path d="M6301 11094 c0 -11 3 -14 6 -6 3 7 2 16 -1 19 -3 4 -6 -2 -5 -13z"/>
<path d="M6311 11054 c0 -11 3 -14 6 -6 3 7 2 16 -1 19 -3 4 -6 -2 -5 -13z"/>
<path d="M6326 11035 c-10 -26 -7 -42 5 -25 8 11 9 8 4 -13 -4 -20 -2 -27 6
-22 8 5 9 1 4 -15 -5 -16 -4 -20 5 -15 9 5 10 2 5 -14 -4 -12 -2 -21 4 -21 6
0 7 -7 4 -17 -5 -12 -3 -14 7 -8 10 6 12 4 7 -8 -3 -10 -3 -17 2 -17 4 0 13
-10 19 -22 11 -20 11 -19 6 12 -8 45 -53 182 -63 193 -5 5 -11 1 -15 -8z"/>
<path d="M6650 10850 c-100 -4 -132 -9 -163 -26 l-38 -20 48 -21 c41 -19 74
-23 231 -28 129 -4 182 -3 182 5 0 6 -5 31 -11 54 l-11 44 -56 -2 c-32 0 -113
-3 -182 -6z"/>
<path d="M7070 10853 c1 -5 11 -28 24 -53 l24 -44 268 3 c166 2 274 7 282 13
6 6 12 21 12 33 0 12 -6 27 -12 32 -15 12 -598 27 -598 16z"/>
<path d="M13087 10242 c-47 -86 -97 -178 -112 -204 -43 -77 -19 -55 41 37 55
85 170 312 162 320 -3 3 -43 -66 -91 -153z"/>
<path d="M6605 10345 c42 -102 209 -384 221 -373 4 5 -210 384 -228 403 -6 6
-2 -8 7 -30z"/>
<path d="M7255 10034 c-132 -63 -243 -118 -246 -122 -4 -4 18 -66 49 -138 l55
-131 45 34 c60 46 120 75 222 109 76 25 100 28 225 28 l141 1 -116 164 c-63
91 -119 166 -125 168 -5 1 -118 -49 -250 -113z"/>
<path d="M7563 9789 c-133 -12 -271 -59 -400 -135 -38 -22 -41 -27 -33 -49 7
-18 6 -25 -2 -25 -6 0 -2 -10 10 -23 18 -19 167 -363 504 -1167 127 -303 148
-341 244 -437 45 -46 86 -83 91 -83 5 0 19 35 32 78 46 158 145 337 270 486
60 73 212 210 262 236 46 25 25 -1 -62 -76 -151 -130 -279 -294 -369 -473 -41
-82 -113 -261 -108 -267 9 -9 119 -59 213 -97 61 -24 238 -97 395 -162 157
-65 291 -120 297 -122 9 -3 7 12 -6 50 -46 133 -52 319 -16 492 29 143 155
489 171 472 4 -3 -15 -65 -40 -137 -57 -163 -101 -328 -117 -439 -20 -139 2
-368 41 -441 4 -8 86 -46 180 -85 l172 -69 -7 -81 c-4 -44 -18 -150 -31 -235
-39 -244 -46 -329 -34 -422 16 -131 74 -231 198 -341 86 -76 291 -207 324
-207 9 0 41 -11 73 -25 92 -41 209 -65 318 -65 102 0 130 -14 50 -26 -117 -17
-315 22 -405 82 -21 13 -40 24 -43 24 -3 0 4 -18 15 -41 20 -38 20 -40 3 -35
-103 30 -1102 306 -1110 306 -9 0 -97 -151 -261 -450 l-30 -54 -244 -90 -244
-89 -52 -66 c-122 -154 -193 -351 -193 -536 0 -55 37 -788 81 -1629 44 -842
80 -1542 80 -1558 0 -27 2 -28 50 -28 l50 0 0 -51 c0 -60 20 -107 61 -143 l29
-26 0 -160 c0 -108 -4 -160 -11 -160 -6 0 -9 -6 -6 -12 4 -15 -103 -58 -146
-58 -16 0 -26 -4 -23 -8 7 -12 -122 -62 -140 -55 -8 3 -14 0 -14 -6 0 -6 -19
-19 -42 -28 -72 -28 -312 -151 -338 -174 l-25 -21 40 6 c22 3 351 6 731 6
l692 0 7 258 c4 141 10 336 14 432 l6 175 43 -3 42 -4 0 177 0 177 23 -6 c96
-25 2386 -605 2401 -608 16 -2 23 6 32 37 8 27 16 38 25 35 36 -13 136 -3 180
18 53 26 65 27 100 8 14 -7 37 -16 52 -20 l27 -6 -2 -292 -3 -291 -50 -17
c-79 -27 -203 -95 -193 -105 7 -8 459 32 467 41 5 5 102 205 216 444 114 239
220 460 236 491 l28 56 -162 106 c-139 90 -198 121 -417 216 -140 62 -258 115
-263 120 -5 5 -4 25 1 44 l10 36 -61 23 c-34 13 -425 159 -869 323 -444 165
-808 302 -808 305 0 3 377 58 838 122 673 95 845 116 872 108 54 -16 226 -12
299 6 281 69 516 300 593 583 18 64 21 105 22 256 0 158 -4 196 -27 305 -33
154 -84 320 -100 324 -7 2 -88 20 -182 39 -93 20 -240 51 -325 69 l-155 33
298 3 c163 1 297 5 297 7 0 20 -125 235 -134 232 -112 -47 -224 -85 -335 -114
-116 -30 -157 -36 -281 -40 -85 -3 -159 -1 -180 5 -30 9 -19 10 70 11 112 1
245 19 375 52 135 33 345 102 345 112 0 6 -117 229 -260 497 l-259 487 -87
290 -87 290 -56 -34 c-68 -41 -206 -86 -252 -81 -29 3 -21 8 66 37 111 37 219
84 228 97 7 12 -129 460 -176 580 -19 50 -46 113 -61 141 l-25 51 -63 -33
c-64 -34 -175 -75 -203 -75 -39 0 -5 20 118 69 72 30 133 55 135 56 13 11
-137 254 -231 375 -124 160 -187 220 -339 322 l-148 98 0 -53 0 -53 -247 -200
c-137 -110 -302 -242 -368 -294 -66 -51 -134 -107 -152 -123 -17 -16 -36 -26
-42 -23 -8 5 -11 125 -11 390 l0 382 -72 23 c-40 13 -111 43 -158 66 -47 24
-240 98 -430 165 -189 67 -351 125 -358 129 -8 4 -95 125 -195 267 l-182 260
-44 -8 c-178 -30 -388 -147 -553 -306 -95 -91 -115 -95 -45 -10 126 155 347
287 544 327 l83 17 -181 260 c-100 142 -182 259 -183 260 -6 7 -139 9 -203 3z
m2715 -1827 c75 -98 113 -197 111 -299 -1 -75 -4 -70 -33 60 -20 87 -64 178
-121 248 -25 29 -45 58 -45 62 0 15 58 -32 88 -71z m-808 -712 c127 -43 273
-75 393 -85 118 -11 97 -29 -25 -22 -161 8 -338 52 -460 113 -47 24 -80 54
-42 40 10 -4 70 -25 134 -46z m1345 -245 c95 -17 148 -43 65 -31 -25 3 -110
11 -189 18 -170 14 -364 1 -553 -36 -65 -12 -118 -19 -118 -15 0 16 187 61
327 79 98 13 362 4 468 -15z m-1515 -295 c204 -139 421 -199 674 -187 139 7
159 -4 39 -22 -231 -35 -485 24 -683 159 -54 37 -111 90 -96 90 4 0 34 -18 66
-40z m1780 -409 c0 -12 -118 -63 -215 -94 -145 -45 -268 -60 -449 -54 -88 3
-173 9 -188 13 -43 10 -34 27 10 19 68 -13 343 -7 437 10 115 20 226 50 317
85 83 32 88 33 88 21z m-2073 -291 c-73 -75 -104 -117 -131 -172 -31 -66 -66
-196 -66 -248 0 -11 -5 -20 -11 -20 -17 0 -3 135 21 214 11 34 37 89 58 122
41 63 186 204 210 204 8 0 -29 -45 -81 -100z m2602 -132 c-68 -58 -259 -129
-340 -127 -30 0 -26 3 26 18 88 25 259 99 303 131 47 34 57 16 11 -22z m-1665
-119 c-80 -182 -128 -369 -141 -551 -10 -141 -27 -108 -20 40 7 144 30 258 79
388 37 97 109 235 115 218 2 -6 -13 -49 -33 -95z m459 -94 c202 -237 469 -418
779 -527 122 -43 83 -49 -48 -8 -248 79 -534 266 -700 457 -73 84 -134 168
-134 184 0 16 -5 21 103 -106z m-1210 -1496 c202 -84 367 -155 367 -158 0 -4
-150 -19 -332 -35 -183 -15 -352 -30 -375 -33 l-43 -6 0 192 c0 105 3 191 8
191 4 0 172 -68 375 -151z m2886 -2315 c39 -49 17 -108 -44 -120 -66 -12 -110
66 -69 124 23 33 86 31 113 -4z m-4127 -155 c19 -35 25 -139 9 -139 -26 0 -66
106 -56 151 8 37 25 33 47 -12z m3391 -66 c4 -3 -7 -15 -25 -27 -18 -13 -34
-22 -36 -21 -1 1 3 16 9 33 10 29 20 32 52 15z m98 -35 c22 -6 39 -14 39 -18
0 -12 -76 -30 -130 -30 -48 0 -51 2 -39 17 13 15 64 42 83 43 5 0 26 -5 47
-12z m-2967 -370 c33 -47 7 -98 -50 -98 -56 0 -83 61 -44 100 27 27 75 26 94
-2z"/>
<path d="M12500 9474 c-80 -74 -158 -149 -175 -166 l-30 -31 40 27 c60 40 210
173 258 230 42 49 62 77 55 76 -2 -1 -68 -62 -148 -136z"/>
<path d="M11697 8898 c-114 -61 -205 -113 -203 -115 8 -8 148 58 259 121 96
54 171 105 157 106 -3 0 -98 -50 -213 -112z"/>
<path d="M16635 6032 c-114 -54 -193 -164 -254 -350 -56 -170 -73 -286 -78
-517 -6 -244 8 -368 63 -590 l34 -141 -79 -324 c-197 -798 -378 -1677 -405
-1965 -3 -33 12 37 33 155 106 590 278 1375 449 2045 l18 69 62 13 c218 44
400 254 512 592 57 172 74 277 73 471 0 247 -37 399 -120 491 -77 85 -194 104
-308 51z"/>
<path d="M15555 5602 c-111 -72 -177 -225 -225 -527 -29 -178 -40 -336 -40
-565 0 -253 24 -667 45 -776 38 -203 120 -366 250 -504 l62 -65 18 -150 c31
-268 142 -951 152 -941 3 2 -14 116 -36 253 -46 282 -97 649 -107 769 l-7 82
41 73 c87 159 179 404 228 606 92 379 97 818 14 1223 -56 277 -121 438 -203
504 -49 39 -144 48 -192 18z"/>
<path d="M17560 4805 c-86 -19 -262 -108 -380 -192 -103 -74 -298 -261 -372
-358 -209 -275 -355 -625 -384 -920 -6 -62 -15 -86 -80 -205 -188 -349 -330
-726 -408 -1092 -6 -27 -9 -28 -66 -28 -43 0 -60 4 -60 13 0 23 -143 297 -209
402 -72 112 -198 283 -291 393 -40 48 -70 96 -86 138 -143 381 -432 697 -802
876 -183 88 -316 107 -393 55 -61 -42 -74 -70 -74 -160 0 -73 4 -90 36 -157
53 -111 139 -218 303 -378 294 -287 439 -363 691 -363 72 0 131 6 170 16 33
10 66 18 74 19 31 3 288 -332 400 -519 57 -97 171 -315 171 -328 0 -4 -130 -7
-290 -7 -270 0 -290 -1 -289 -17 0 -10 15 -92 32 -183 l32 -165 615 0 614 0
28 160 c15 88 27 170 27 183 l1 22 -261 0 -261 0 33 43 c110 141 360 354 545
465 l86 51 46 -48 c117 -121 249 -191 457 -243 78 -19 116 -22 280 -22 168 0
205 3 316 27 142 30 367 102 473 151 153 70 205 154 171 272 -50 173 -344 303
-687 304 -313 0 -606 -106 -931 -338 -45 -32 -127 -84 -182 -116 -55 -31 -143
-87 -194 -124 -110 -78 -316 -273 -381 -361 -44 -58 -46 -60 -92 -61 l-46 0
14 63 c48 207 147 500 245 719 51 114 204 416 218 431 5 5 43 1 84 -7 200 -42
446 0 660 112 163 85 318 229 471 435 171 231 310 479 342 607 46 185 -27 365
-172 426 -53 22 -167 26 -244 9z"/>
<path d="M15902 2050 c0 -19 2 -27 5 -17 2 9 2 25 0 35 -3 9 -5 1 -5 -18z"/>
<path d="M15822 2040 c0 -14 2 -19 5 -12 2 6 2 18 0 25 -3 6 -5 1 -5 -13z"/>
<path d="M15315 1478 c3 -13 30 -156 60 -318 31 -162 61 -307 67 -323 6 -15
26 -41 45 -57 l34 -30 -1803 -1 c-992 -1 -1816 -5 -1833 -9 -37 -9 5729 -10
6165 -1 219 5 0 8 -717 9 l-1033 2 39 39 c45 45 38 17 96 376 25 154 48 292
51 308 l6 27 -591 0 -591 0 5 -22z"/>
<path d="M1960 739 c173 -3 1755 -6 3515 -6 1760 0 3099 4 2975 8 -124 3
-1705 6 -3515 6 -1809 0 -3148 -4 -2975 -8z"/>
<path d="M8690 740 c0 -7 443 -10 1309 -10 863 0 1312 3 1316 10 4 7 -435 10
-1309 10 -871 0 -1316 -3 -1316 -10z"/>
</g>
</svg>
